<?xml version="1.0" encoding="utf-8"?>
<!-- Generator: Adobe Illustrator 22.0.0, SVG Export Plug-In . SVG Version: 6.00 Build 0)  -->
<svg version="1.1" id="Layer_1" xmlns="http://www.w3.org/2000/svg" xmlns:xlink="http://www.w3.org/1999/xlink" x="0px" y="0px"
	 viewBox="0 0 45.4 35.8" style="enable-background:new 0 0 45.4 35.8;" xml:space="preserve">
<style type="text/css">
	.st0{filter:url(#Adobe_OpacityMaskFilter);}
	.st1{clip-path:url(#SVGID_2_);fill:#010101;}
	.st2{enable-background:new    ;}
	.st3{clip-path:url(#SVGID_2_);}
	.st4{clip-path:url(#SVGID_5_);fill:url(#SVGID_6_);}
	.st5{clip-path:url(#SVGID_2_);mask:url(#SVGID_3_);}
	.st6{clip-path:url(#SVGID_8_);}
	.st7{clip-path:url(#SVGID_10_);fill:url(#SVGID_11_);}
	.st8{filter:url(#Adobe_OpacityMaskFilter_1_);}
	.st9{clip-path:url(#SVGID_13_);fill:#010101;}
	.st10{clip-path:url(#SVGID_13_);}
	.st11{clip-path:url(#SVGID_16_);fill:url(#SVGID_17_);}
	.st12{clip-path:url(#SVGID_13_);mask:url(#SVGID_14_);}
	.st13{clip-path:url(#SVGID_19_);}
	.st14{clip-path:url(#SVGID_21_);fill:url(#SVGID_22_);}
	.st15{filter:url(#Adobe_OpacityMaskFilter_2_);}
	.st16{clip-path:url(#SVGID_24_);fill:#010101;}
	.st17{clip-path:url(#SVGID_24_);fill:url(#SVGID_26_);}
	.st18{clip-path:url(#SVGID_24_);mask:url(#SVGID_25_);}
	.st19{clip-path:url(#SVGID_28_);}
	.st20{clip-path:url(#SVGID_30_);fill:url(#SVGID_31_);}
	.st21{filter:url(#Adobe_OpacityMaskFilter_3_);}
	.st22{clip-path:url(#SVGID_33_);fill:#010101;}
	.st23{clip-path:url(#SVGID_33_);fill:url(#SVGID_35_);}
	.st24{clip-path:url(#SVGID_33_);mask:url(#SVGID_34_);}
	.st25{clip-path:url(#SVGID_37_);}
	.st26{clip-path:url(#SVGID_39_);fill:url(#SVGID_40_);}
	.st27{filter:url(#Adobe_OpacityMaskFilter_4_);}
	.st28{clip-path:url(#SVGID_42_);fill:#010101;}
	.st29{clip-path:url(#SVGID_42_);}
	.st30{clip-path:url(#SVGID_45_);fill:url(#SVGID_46_);}
	.st31{clip-path:url(#SVGID_42_);mask:url(#SVGID_43_);}
	.st32{clip-path:url(#SVGID_48_);}
	.st33{clip-path:url(#SVGID_50_);fill:url(#SVGID_51_);}
	.st34{filter:url(#Adobe_OpacityMaskFilter_5_);}
	.st35{clip-path:url(#SVGID_53_);fill:#010101;}
	.st36{clip-path:url(#SVGID_53_);}
	.st37{clip-path:url(#SVGID_56_);fill:url(#SVGID_57_);}
	.st38{clip-path:url(#SVGID_53_);mask:url(#SVGID_54_);}
	.st39{clip-path:url(#SVGID_59_);}
	.st40{clip-path:url(#SVGID_61_);fill:url(#SVGID_62_);}
	.st41{filter:url(#Adobe_OpacityMaskFilter_6_);}
	.st42{clip-path:url(#SVGID_64_);fill:#010101;}
	.st43{clip-path:url(#SVGID_64_);}
	.st44{clip-path:url(#SVGID_67_);fill:url(#SVGID_68_);}
	.st45{clip-path:url(#SVGID_64_);mask:url(#SVGID_65_);}
	.st46{clip-path:url(#SVGID_70_);}
	.st47{clip-path:url(#SVGID_72_);fill:url(#SVGID_73_);}
	.st48{filter:url(#Adobe_OpacityMaskFilter_7_);}
	.st49{clip-path:url(#SVGID_75_);fill:#010101;}
	.st50{clip-path:url(#SVGID_75_);}
	.st51{clip-path:url(#SVGID_78_);fill:url(#SVGID_79_);}
	.st52{clip-path:url(#SVGID_75_);mask:url(#SVGID_76_);}
	.st53{clip-path:url(#SVGID_81_);}
	.st54{clip-path:url(#SVGID_83_);fill:url(#SVGID_84_);}
</style>
<g>
	<g>
		<defs>
			<path id="SVGID_41_" d="M6.5,1.1C4.1,2,2,3,0.9,5.5c-1.7,3.5-0.6,7.7,2.8,9.7c0.2,0.1,0.4,0.2,0.6,0.2c0.5,0,1.5-1.1,2-1.4
				c1-0.6,2-1.1,3.1-1.4c4.8-1.4,9.8,0.1,14,2.4c4.1,2.2,8.9,3.8,13.6,2.5c1.8-0.5,3.5-1.5,4.9-2.7c2.1-1.8,3.5-4.4,3.6-7.1
				c0-1.2-0.1-2.5-0.5-3.7c0-0.1-0.6-1.4-0.5-1.4C39.7,7.2,29.3,5.2,24,2.9c-3.7-1.5-7.7-2.8-11.7-2.8C10.4,0.1,8.4,0.4,6.5,1.1"/>
		</defs>
		<clipPath id="SVGID_2_">
			<use xlink:href="#SVGID_41_"  style="overflow:visible;"/>
		</clipPath>
		<defs>
			<filter id="Adobe_OpacityMaskFilter" filterUnits="userSpaceOnUse" x="-22.5" y="-33.7" width="89.6" height="86.2">
				<feColorMatrix  type="matrix" values="1 0 0 0 0  0 1 0 0 0  0 0 1 0 0  0 0 0 1 0"/>
			</filter>
		</defs>
		<mask maskUnits="userSpaceOnUse" x="-22.5" y="-33.7" width="89.6" height="86.2" id="SVGID_3_">
			<g class="st0">
				<rect x="-6.8" y="-14.8" class="st1" width="58.2" height="48.5"/>
				<g class="st2">
					<g>
						<defs>
							
								<rect id="SVGID_44_" x="5.6" y="-15.5" transform="matrix(0.3447 -0.9387 0.9387 0.3447 5.7852 27.1425)" width="33.4" height="49.8"/>
						</defs>
						<clipPath id="SVGID_5_" class="st3">
							<use xlink:href="#SVGID_44_"  style="overflow:visible;"/>
						</clipPath>
						
							<linearGradient id="SVGID_6_" gradientUnits="userSpaceOnUse" x1="-493.6106" y1="477.1581" x2="-492.6106" y2="477.1581" gradientTransform="matrix(-40.3185 -14.804 14.9068 -40.5989 -26972.1035 12081.4824)">
							<stop  offset="0" style="stop-color:#595A5C"/>
							<stop  offset="5.816212e-02" style="stop-color:#6A696B"/>
							<stop  offset="0.182" style="stop-color:#8C8A8C"/>
							<stop  offset="0.3044" style="stop-color:#ABAAAC"/>
							<stop  offset="0.4235" style="stop-color:#C4C4C5"/>
							<stop  offset="0.5377" style="stop-color:#D5D5D6"/>
							<stop  offset="0.6418" style="stop-color:#DCDDDE"/>
							<stop  offset="1" style="stop-color:#DCDDDE"/>
						</linearGradient>
						<polygon class="st4" points="67.1,-9.1 0.1,-33.7 -22.5,27.9 44.5,52.5 						"/>
					</g>
				</g>
			</g>
		</mask>
		<g class="st5">
			<g>
				<defs>
					<rect id="SVGID_47_" x="-6.8" y="-14.8" width="58.2" height="48.5"/>
				</defs>
				<clipPath id="SVGID_8_">
					<use xlink:href="#SVGID_47_"  style="overflow:visible;"/>
				</clipPath>
				<g class="st6">
					<defs>
						
							<rect id="SVGID_49_" x="5.6" y="-15.5" transform="matrix(0.3447 -0.9387 0.9387 0.3447 5.7852 27.1425)" width="33.4" height="49.8"/>
					</defs>
					<clipPath id="SVGID_10_">
						<use xlink:href="#SVGID_49_"  style="overflow:visible;"/>
					</clipPath>
					
						<linearGradient id="SVGID_11_" gradientUnits="userSpaceOnUse" x1="-493.6106" y1="477.158" x2="-492.6106" y2="477.158" gradientTransform="matrix(-40.3185 -14.804 14.9068 -40.5989 -26972.1055 12081.4834)">
						<stop  offset="0" style="stop-color:#0A88A5"/>
						<stop  offset="0.6418" style="stop-color:#0A88A5"/>
						<stop  offset="1" style="stop-color:#0A88A5"/>
					</linearGradient>
					<polygon class="st7" points="67.1,-9.1 0.1,-33.7 -22.5,27.9 44.5,52.5 					"/>
				</g>
			</g>
		</g>
	</g>
	<g>
		<defs>
			<path id="SVGID_52_" d="M6.5,18.9c-2.4,0.9-4.5,1.9-5.7,4.4C-0.8,26.8,0.2,31,3.6,33c0.2,0.1,0.4,0.2,0.6,0.2
				c0.5,0,1.5-1.1,2-1.4c1-0.6,2-1.1,3.1-1.4c4.8-1.4,9.8,0.1,14,2.4c4.1,2.2,8.9,3.8,13.6,2.5c1.8-0.5,3.5-1.5,4.9-2.7
				c2.1-1.8,3.5-4.4,3.6-7.1c0-1.2-0.1-2.5-0.5-3.7c0-0.1-0.6-1.4-0.5-1.4C39.7,25,29.3,23,23.9,20.7c-3.7-1.5-7.7-2.8-11.7-2.8
				C10.3,17.9,8.4,18.2,6.5,18.9"/>
		</defs>
		<clipPath id="SVGID_13_">
			<use xlink:href="#SVGID_52_"  style="overflow:visible;"/>
		</clipPath>
		<defs>
			<filter id="Adobe_OpacityMaskFilter_1_" filterUnits="userSpaceOnUse" x="-22.5" y="-15.9" width="89.6" height="86.2">
				<feColorMatrix  type="matrix" values="1 0 0 0 0  0 1 0 0 0  0 0 1 0 0  0 0 0 1 0"/>
			</filter>
		</defs>
		<mask maskUnits="userSpaceOnUse" x="-22.5" y="-15.9" width="89.6" height="86.2" id="SVGID_14_">
			<g class="st8">
				<rect x="-6.8" y="3" class="st9" width="58.2" height="48.5"/>
				<g class="st2">
					<g>
						<defs>
							
								<rect id="SVGID_55_" x="5.6" y="2.3" transform="matrix(0.3447 -0.9387 0.9387 0.3447 -10.9457 38.7663)" width="33.4" height="49.8"/>
						</defs>
						<clipPath id="SVGID_16_" class="st10">
							<use xlink:href="#SVGID_55_"  style="overflow:visible;"/>
						</clipPath>
						
							<linearGradient id="SVGID_17_" gradientUnits="userSpaceOnUse" x1="-493.6105" y1="477.1581" x2="-492.6105" y2="477.1581" gradientTransform="matrix(-40.3188 -14.8041 14.9069 -40.5992 -26972.3223 12099.3623)">
							<stop  offset="0" style="stop-color:#FFFFFF"/>
							<stop  offset="0.291" style="stop-color:#E0E1E1"/>
							<stop  offset="0.5007" style="stop-color:#D2D3D4"/>
							<stop  offset="0.61" style="stop-color:#CCCDCE"/>
							<stop  offset="0.6962" style="stop-color:#BDBDBE"/>
							<stop  offset="0.7744" style="stop-color:#A7A6A7"/>
							<stop  offset="0.848" style="stop-color:#8B898A"/>
							<stop  offset="0.9183" style="stop-color:#6B686A"/>
							<stop  offset="0.9853" style="stop-color:#4A484A"/>
							<stop  offset="1" style="stop-color:#424143"/>
						</linearGradient>
						<polygon class="st11" points="67.1,8.7 0.1,-15.9 -22.5,45.7 44.5,70.3 						"/>
					</g>
				</g>
			</g>
		</mask>
		<g class="st12">
			<g>
				<defs>
					<rect id="SVGID_58_" x="-6.8" y="3" width="58.2" height="48.5"/>
				</defs>
				<clipPath id="SVGID_19_">
					<use xlink:href="#SVGID_58_"  style="overflow:visible;"/>
				</clipPath>
				<g class="st13">
					<defs>
						
							<rect id="SVGID_60_" x="5.6" y="2.3" transform="matrix(0.3447 -0.9387 0.9387 0.3447 -10.9458 38.7678)" width="33.4" height="49.8"/>
					</defs>
					<clipPath id="SVGID_21_">
						<use xlink:href="#SVGID_60_"  style="overflow:visible;"/>
					</clipPath>
					
						<linearGradient id="SVGID_22_" gradientUnits="userSpaceOnUse" x1="-493.6105" y1="477.1581" x2="-492.6105" y2="477.1581" gradientTransform="matrix(-40.3188 -14.8041 14.9069 -40.5992 -26972.3223 12099.3633)">
						<stop  offset="0" style="stop-color:#099547"/>
						<stop  offset="0.5007" style="stop-color:#099547"/>
						<stop  offset="1" style="stop-color:#099547"/>
					</linearGradient>
					<polygon class="st14" points="67.1,8.7 0.1,-15.9 -22.5,45.7 44.5,70.3 					"/>
				</g>
			</g>
		</g>
	</g>
</g>
<g>
	<g>
		<defs>
			<path id="SVGID_74_" d="M-80.5,17.7c-3.7,12.1-2.3,23.2,3.1,24.9c5.4,1.7,12.8-6.7,16.6-18.8c3.7-12.1,2.3-23.2-3.1-24.9
				c-0.5-0.1-0.9-0.2-1.4-0.2C-70.6-1.3-77.1,6.7-80.5,17.7"/>
		</defs>
		<clipPath id="SVGID_24_">
			<use xlink:href="#SVGID_74_"  style="overflow:visible;"/>
		</clipPath>
		<defs>
			<filter id="Adobe_OpacityMaskFilter_2_" filterUnits="userSpaceOnUse" x="-143.3" y="-51.1" width="145.3" height="145.3">
				<feColorMatrix  type="matrix" values="1 0 0 0 0  0 1 0 0 0  0 0 1 0 0  0 0 0 1 0"/>
			</filter>
		</defs>
		<mask maskUnits="userSpaceOnUse" x="-143.3" y="-51.1" width="145.3" height="145.3" id="SVGID_25_">
			<g class="st15">
				<g class="st2">
					<g>
						<defs>
							
								<rect id="SVGID_77_" x="-96.4" y="-4.2" transform="matrix(0.7071 -0.7071 0.7071 0.7071 -35.9063 -43.6975)" width="51.4" height="51.4"/>
						</defs>
						<clipPath id="SVGID_26_" style="clip-path:url(#SVGID_24_);">
							<use xlink:href="#SVGID_77_"  style="overflow:visible;"/>
						</clipPath>
						
							<linearGradient id="SVGID_28_" gradientUnits="userSpaceOnUse" x1="-484.7889" y1="489.3492" x2="-483.7889" y2="489.3492" gradientTransform="matrix(31.7744 -31.7744 31.7744 31.7744 -229.9158 -30916.8672)">
							<stop  offset="0" style="stop-color:#FFFFFF"/>
							<stop  offset="0.1391" style="stop-color:#D8D5D5"/>
							<stop  offset="0.4226" style="stop-color:#938E8E"/>
							<stop  offset="0.8216" style="stop-color:#423D3D"/>
							<stop  offset="1" style="stop-color:#231F20"/>
						</linearGradient>
						<polygon style="clip-path:url(#SVGID_26_);fill:url(#SVGID_28_);" points="-70.7,94.1 1.9,21.5 -70.7,-51.1 -143.3,21.5 
													"/>
					</g>
				</g>
			</g>
		</mask>
		<g class="st18">
			<g>
				<defs>
					<rect id="SVGID_80_" x="-107" y="-14.8" width="72.6" height="72.6"/>
				</defs>
				<clipPath id="SVGID_30_">
					<use xlink:href="#SVGID_80_"  style="overflow:visible;"/>
				</clipPath>
				<g style="clip-path:url(#SVGID_30_);">
					<defs>
						
							<rect id="SVGID_82_" x="-96.4" y="-4.2" transform="matrix(0.7071 -0.7071 0.7071 0.7071 -35.9092 -43.6993)" width="51.4" height="51.4"/>
					</defs>
					<clipPath id="SVGID_31_">
						<use xlink:href="#SVGID_82_"  style="overflow:visible;"/>
					</clipPath>
					
						<linearGradient id="SVGID_33_" gradientUnits="userSpaceOnUse" x1="-484.7889" y1="489.3492" x2="-483.7889" y2="489.3492" gradientTransform="matrix(31.7744 -31.7744 31.7744 31.7744 -229.916 -30916.8672)">
						<stop  offset="0" style="stop-color:#099547"/>
						<stop  offset="1" style="stop-color:#099547"/>
					</linearGradient>
					<polygon style="clip-path:url(#SVGID_31_);fill:url(#SVGID_33_);" points="-70.7,94.1 1.9,21.5 -70.7,-51.1 -143.3,21.5 					
						"/>
				</g>
			</g>
		</g>
	</g>
</g>
</svg>
