<?xml version="1.0" encoding="utf-8"?>
<!-- Generator: Adobe Illustrator 16.0.0, SVG Export Plug-In . SVG Version: 6.00 Build 0)  -->
<!DOCTYPE svg PUBLIC "-//W3C//DTD SVG 1.1//EN" "http://www.w3.org/Graphics/SVG/1.1/DTD/svg11.dtd">
<svg version="1.1" id="Layer_1" xmlns="http://www.w3.org/2000/svg" xmlns:xlink="http://www.w3.org/1999/xlink" x="0px" y="0px"
	 width="58.273px" height="58.273px" viewBox="0 0 58.273 58.273" enable-background="new 0 0 58.273 58.273" xml:space="preserve">
<g transform="translate(-88.648 -605.163)">
	<path d="M95.931,614.268v-7.283c-0.001-1.005,0.813-1.821,1.819-1.822s1.821,0.813,1.822,1.819c0,0.001,0,0.002,0,0.003v7.283
		c0.001,1.006-0.813,1.822-1.819,1.823c-1.005,0.001-1.821-0.813-1.822-1.819C95.931,614.271,95.931,614.269,95.931,614.268
		 M126.889,616.09c1.005,0.001,1.821-0.813,1.822-1.818c0,0,0-0.001,0-0.002v-7.284c0.001-1.006-0.813-1.822-1.819-1.823
		s-1.822,0.813-1.823,1.819c0,0.001,0,0.002,0,0.004v7.282c-0.001,1.006,0.813,1.821,1.818,1.822
		C126.888,616.09,126.888,616.09,126.889,616.09 M146.921,648.868c0,8.046-6.522,14.569-14.568,14.569
		c-8.046,0.001-14.569-6.521-14.57-14.567c0-8.047,6.522-14.569,14.568-14.57h0.001C140.398,634.3,146.92,640.822,146.921,648.868
		 M143.279,648.868c-0.003-6.034-4.897-10.924-10.932-10.92c-6.034,0.003-10.923,4.897-10.92,10.932
		c0.003,6.031,4.894,10.92,10.925,10.92c6.032-0.006,10.921-4.895,10.927-10.927 M92.291,648.512v-25.137h40.061v7.283h3.643
		v-14.205c0.018-2.194-1.747-3.987-3.941-4.005c-0.001,0-0.001,0-0.002,0h-1.521v1.821c-0.033,2.012-1.69,3.615-3.701,3.581
		c-1.965-0.032-3.549-1.616-3.581-3.581v-1.821h-21.854v1.821c-0.033,2.012-1.69,3.615-3.702,3.581
		c-1.964-0.032-3.548-1.616-3.581-3.581v-1.821h-1.517c-2.194,0.015-3.962,1.807-3.946,4.001c0,0.002,0,0.003,0,0.004v32.054
		c-0.014,2.194,1.752,3.986,3.946,4.005h21.549v-3.644H92.594c-0.18-0.023-0.311-0.181-0.3-0.361 M137.82,648.868h-5.464v-5.463
		c0-1.006-0.814-1.821-1.82-1.821s-1.82,0.815-1.82,1.821v7.284c-0.001,1.006,0.814,1.822,1.819,1.822c0.001,0,0.001,0,0.001,0
		h7.284c1.007-0.003,1.819-0.821,1.816-1.827C139.633,649.683,138.822,648.871,137.82,648.868"/>
	<rect x="95.931" y="627.017" width="7.285" height="7.285"/>
	<rect x="95.931" y="637.942" width="7.285" height="7.285"/>
	<rect x="106.857" y="627.017" width="7.285" height="7.285"/>
	<rect x="106.857" y="637.942" width="7.285" height="7.285"/>
	<rect x="117.784" y="627.017" width="7.285" height="7.285"/>
</g>
</svg>
