<svg xmlns="http://www.w3.org/2000/svg" width="580.156" height="370.744" viewBox="0 0 580.156 370.744"><g transform="translate(-166.513 -264.492)"><path d="M215.782,515.247a177.247,177.247,0,1,1,318,10.346" transform="translate(31.635)" fill="none" stroke="#0f9c4f" stroke-miterlimit="10" stroke-width="1"/><path d="M528.255,433.636a159.519,159.519,0,1,1-159.518-159.52,159.518,159.518,0,0,1,159.518,159.52" transform="translate(40.231 8.596)" fill="#129d4f"/><path d="M216.877,384.851a159.327,159.327,0,0,1,17.44-37.127l135.547,85.744,1.307-159.363A159.531,159.531,0,1,1,216.877,384.851" transform="translate(40.21 8.585)" fill="#004282"/><path d="M430.705,401.772a93.834,93.834,0,1,1-93.833-93.833,93.832,93.832,0,0,1,93.833,93.833" transform="translate(72.094 40.46)" fill="#d5eaf9"/><g transform="translate(571.39 305.24)"><path d="M383.42,293.719a4.2,4.2,0,0,1,2.206,1.486,4.122,4.122,0,0,1,.711,2.449,4.565,4.565,0,0,1-.412,1.965,4.312,4.312,0,0,1-1.159,1.505,5.3,5.3,0,0,1-1.791.959,8.035,8.035,0,0,1-4.624,0,5.352,5.352,0,0,1-1.793-.959,4.335,4.335,0,0,1-1.159-1.505,4.6,4.6,0,0,1-.412-1.965,4.11,4.11,0,0,1,.713-2.449,4.2,4.2,0,0,1,2.2-1.486,3.793,3.793,0,0,1-1.781-1.414,4.279,4.279,0,0,1-.214-3.933,4.237,4.237,0,0,1,1.057-1.4,4.9,4.9,0,0,1,1.622-.926,6.614,6.614,0,0,1,4.15,0,4.871,4.871,0,0,1,1.62.926,4.217,4.217,0,0,1,1.058,1.4,4.272,4.272,0,0,1-.216,3.933A3.774,3.774,0,0,1,383.42,293.719Zm-2.758,6.524a3.427,3.427,0,0,0,1.21-.2,2.467,2.467,0,0,0,.876-.55,2.283,2.283,0,0,0,.538-.835,3.039,3.039,0,0,0,.181-1.053,2.633,2.633,0,0,0-.746-2.033,3.408,3.408,0,0,0-4.115,0,2.633,2.633,0,0,0-.746,2.033,3,3,0,0,0,.181,1.053,2.255,2.255,0,0,0,.536.835,2.5,2.5,0,0,0,.876.55A3.442,3.442,0,0,0,380.662,300.243Zm0-12.424a2.743,2.743,0,0,0-1.074.19,2.217,2.217,0,0,0-.752.515,2.043,2.043,0,0,0-.441.742,2.7,2.7,0,0,0-.14.88,3.733,3.733,0,0,0,.117.946,2.176,2.176,0,0,0,.4.814,2.023,2.023,0,0,0,.746.571,3.159,3.159,0,0,0,2.284,0,2.047,2.047,0,0,0,.748-.571,2.172,2.172,0,0,0,.4-.814,3.737,3.737,0,0,0,.118-.946,2.606,2.606,0,0,0-.148-.88,2.153,2.153,0,0,0-.439-.742,2.182,2.182,0,0,0-.748-.515A2.729,2.729,0,0,0,380.662,287.819Z" transform="translate(-374.987 -285.716)" fill="#004282"/><path d="M393.777,296v1.616a.566.566,0,0,1-.146.39.536.536,0,0,1-.419.163H391.72v3.991h-2.43V298.17h-6.9a.762.762,0,0,1-.5-.175.751.751,0,0,1-.272-.435l-.293-1.414,7.743-10.344h2.645V296Zm-4.486,0v-5.349a15.175,15.175,0,0,1,.1-1.672L384.315,296Z" transform="translate(-369.009 -285.634)" fill="#004282"/><path d="M396.038,289.847a4.344,4.344,0,0,1-.311,1.674,4.013,4.013,0,0,1-.831,1.272,3.646,3.646,0,0,1-1.21.808,3.75,3.75,0,0,1-1.435.282,3.94,3.94,0,0,1-1.505-.282,3.46,3.46,0,0,1-1.192-.808,3.719,3.719,0,0,1-.785-1.272,4.7,4.7,0,0,1-.284-1.674,4.953,4.953,0,0,1,.284-1.719,3.733,3.733,0,0,1,.785-1.3,3.49,3.49,0,0,1,1.192-.82,4.094,4.094,0,0,1,3.014,0,3.511,3.511,0,0,1,1.2.82,3.724,3.724,0,0,1,.794,1.3A5,5,0,0,1,396.038,289.847Zm5.438-3.515a1.8,1.8,0,0,1,.344-.3.976.976,0,0,1,.559-.136h2.035l-12.14,15.929a1.332,1.332,0,0,1-.352.3.987.987,0,0,1-.5.118h-2.08Zm-7.586,3.515a3.971,3.971,0,0,0-.13-1.1,2.051,2.051,0,0,0-.35-.713,1.3,1.3,0,0,0-.521-.39,1.721,1.721,0,0,0-.639-.118,1.663,1.663,0,0,0-.633.118,1.192,1.192,0,0,0-.5.39,2.079,2.079,0,0,0-.334.713,4.07,4.07,0,0,0-.124,1.1,3.8,3.8,0,0,0,.124,1.058,1.97,1.97,0,0,0,.334.684,1.181,1.181,0,0,0,.5.373,1.737,1.737,0,0,0,.633.113,1.8,1.8,0,0,0,.639-.113,1.294,1.294,0,0,0,.521-.373,1.946,1.946,0,0,0,.35-.684A3.71,3.71,0,0,0,393.89,289.847Zm11.383,8.547a4.3,4.3,0,0,1-.311,1.672,3.9,3.9,0,0,1-.831,1.272,3.731,3.731,0,0,1-2.643,1.1,3.857,3.857,0,0,1-1.505-.289,3.484,3.484,0,0,1-1.193-.814,3.655,3.655,0,0,1-.785-1.272,4.647,4.647,0,0,1-.284-1.672,4.91,4.91,0,0,1,.284-1.719,3.689,3.689,0,0,1,.785-1.3,3.446,3.446,0,0,1,1.193-.82,4.064,4.064,0,0,1,3.012,0,3.432,3.432,0,0,1,1.2.82,3.757,3.757,0,0,1,.79,1.3A4.822,4.822,0,0,1,405.273,298.394Zm-2.158,0a4.078,4.078,0,0,0-.126-1.1,1.952,1.952,0,0,0-.344-.713,1.29,1.29,0,0,0-.521-.388,1.7,1.7,0,0,0-.637-.118,1.648,1.648,0,0,0-.633.118,1.231,1.231,0,0,0-.509.388,1.944,1.944,0,0,0-.334.713,4.265,4.265,0,0,0-.12,1.1,4.03,4.03,0,0,0,.12,1.062,1.8,1.8,0,0,0,.334.689,1.177,1.177,0,0,0,.509.373,1.722,1.722,0,0,0,.633.113,1.781,1.781,0,0,0,.637-.113,1.233,1.233,0,0,0,.521-.373,1.807,1.807,0,0,0,.344-.689A3.854,3.854,0,0,0,403.115,298.394Z" transform="translate(-362.271 -285.71)" fill="#004282"/></g><g transform="translate(571.699 329.252)"><path d="M376.585,298.08v11.893h-1.439V298.08Z" transform="translate(-375.146 -298.08)" fill="#2d2d2d"/><path d="M379.018,299.17a.886.886,0,0,1-.085.392,1.135,1.135,0,0,1-.225.322,1.031,1.031,0,0,1-.332.223,1,1,0,0,1-.4.08.943.943,0,0,1-.39-.08,1.015,1.015,0,0,1-.318-.223,1.037,1.037,0,0,1-.218-.322.911.911,0,0,1-.082-.392.968.968,0,0,1,.082-.4,1.035,1.035,0,0,1,.218-.332,1.009,1.009,0,0,1,.318-.221.943.943,0,0,1,.39-.08,1,1,0,0,1,.4.08,1.026,1.026,0,0,1,.332.221,1.127,1.127,0,0,1,.225.332A.942.942,0,0,1,379.018,299.17Zm-.307,2.569v8.178h-1.437V301.74Z" transform="translate(-373.43 -298.024)" fill="#2d2d2d"/><path d="M386.294,300.382v.532c0,.179-.115.291-.34.34l-.93.12a2.665,2.665,0,0,1,.045,2.266,2.482,2.482,0,0,1-.633.835,2.835,2.835,0,0,1-.969.532,3.9,3.9,0,0,1-1.227.186,4.076,4.076,0,0,1-1.082-.138,1.476,1.476,0,0,0-.4.344.611.611,0,0,0-.136.367.491.491,0,0,0,.237.441,1.711,1.711,0,0,0,.625.214,6.7,6.7,0,0,0,.884.08c.332.012.672.029,1.02.054a9.078,9.078,0,0,1,1.016.124,3.023,3.023,0,0,1,.886.291,1.665,1.665,0,0,1,.625.557,1.633,1.633,0,0,1,.237.919,2.132,2.132,0,0,1-.26,1.018,2.764,2.764,0,0,1-.755.876,3.837,3.837,0,0,1-1.208.614,5.239,5.239,0,0,1-1.61.231,6.245,6.245,0,0,1-1.567-.177,3.651,3.651,0,0,1-1.115-.478,2.076,2.076,0,0,1-.666-.689,1.645,1.645,0,0,1-.221-.82A1.475,1.475,0,0,1,379.13,308a2.62,2.62,0,0,1,1.041-.67,1.5,1.5,0,0,1-.575-.433,1.248,1.248,0,0,1-.151-1.1,1.627,1.627,0,0,1,.2-.381,2.014,2.014,0,0,1,.328-.359,2.139,2.139,0,0,1,.451-.3,2.57,2.57,0,0,1-1.053-3.29,2.421,2.421,0,0,1,.641-.831,2.959,2.959,0,0,1,.981-.53,4.31,4.31,0,0,1,2.243-.068,3.124,3.124,0,0,1,.839.344Zm-1.462,8.3a.686.686,0,0,0-.171-.486,1.139,1.139,0,0,0-.454-.289,3.04,3.04,0,0,0-.666-.15c-.254-.029-.522-.052-.8-.068s-.569-.033-.86-.049-.571-.043-.839-.082a2.262,2.262,0,0,0-.74.528,1.089,1.089,0,0,0-.287.748.984.984,0,0,0,.144.513,1.187,1.187,0,0,0,.429.412,2.564,2.564,0,0,0,.732.276,5.257,5.257,0,0,0,2.08-.006,2.577,2.577,0,0,0,.779-.3,1.486,1.486,0,0,0,.487-.46A1.069,1.069,0,0,0,384.832,308.683Zm-2.593-4.442a2.264,2.264,0,0,0,.767-.12,1.6,1.6,0,0,0,.557-.338,1.4,1.4,0,0,0,.338-.522,1.882,1.882,0,0,0,.115-.666,1.584,1.584,0,0,0-.456-1.194,2.195,2.195,0,0,0-2.649,0,1.584,1.584,0,0,0-.456,1.194,1.84,1.84,0,0,0,.117.666,1.468,1.468,0,0,0,.344.522,1.584,1.584,0,0,0,.557.338A2.257,2.257,0,0,0,382.239,304.241Z" transform="translate(-371.75 -296.345)" fill="#2d2d2d"/><path d="M384.848,302.885a4.351,4.351,0,0,1,1.163-.888,3.149,3.149,0,0,1,1.47-.332,2.953,2.953,0,0,1,1.183.221,2.3,2.3,0,0,1,.856.631,2.742,2.742,0,0,1,.521.981,4.278,4.278,0,0,1,.179,1.268v5.207h-1.445v-5.207a2.191,2.191,0,0,0-.425-1.441,1.567,1.567,0,0,0-1.288-.515,2.4,2.4,0,0,0-1.19.309,3.958,3.958,0,0,0-1.023.831v6.022H383.4V298.08h1.445Z" transform="translate(-367.367 -298.08)" fill="#2d2d2d"/><path d="M390.938,309.59a1.979,1.979,0,0,1-1.49-.54,2.17,2.17,0,0,1-.521-1.56v-5.007h-.985a.319.319,0,0,1-.218-.076.3.3,0,0,1-.089-.239V301.6l1.34-.169.33-2.529a.354.354,0,0,1,.111-.2.319.319,0,0,1,.221-.076h.726v2.818h2.367v1.041h-2.367v4.91a1.045,1.045,0,0,0,.251.767.875.875,0,0,0,.647.251,1.13,1.13,0,0,0,.39-.06,1.661,1.661,0,0,0,.287-.134c.082-.049.15-.093.206-.134a.282.282,0,0,1,.15-.06.253.253,0,0,1,.2.138l.419.688a2.693,2.693,0,0,1-.9.544A3.059,3.059,0,0,1,390.938,309.59Z" transform="translate(-363.379 -297.567)" fill="#2d2d2d"/><path d="M393.242,301.217a4.667,4.667,0,0,1,1.46-.977,4.546,4.546,0,0,1,1.736-.322,3.1,3.1,0,0,1,1.218.225,2.494,2.494,0,0,1,.9.631,2.655,2.655,0,0,1,.55.977,4.046,4.046,0,0,1,.186,1.258v5.232h-.639a.618.618,0,0,1-.322-.068.478.478,0,0,1-.179-.27l-.161-.775c-.216.2-.425.375-.629.528a3.428,3.428,0,0,1-.647.386,3.361,3.361,0,0,1-.723.243,3.959,3.959,0,0,1-.853.085,2.966,2.966,0,0,1-.893-.132,2.045,2.045,0,0,1-.732-.4,1.831,1.831,0,0,1-.491-.674,2.323,2.323,0,0,1-.183-.963,1.81,1.81,0,0,1,.266-.934,2.323,2.323,0,0,1,.864-.794,5.612,5.612,0,0,1,1.557-.569,11.779,11.779,0,0,1,2.36-.254v-.639a2.2,2.2,0,0,0-.412-1.441,1.491,1.491,0,0,0-1.206-.489,2.561,2.561,0,0,0-.89.134,3.276,3.276,0,0,0-.623.3c-.175.111-.326.21-.453.3a.657.657,0,0,1-.375.132.407.407,0,0,1-.249-.076.669.669,0,0,1-.179-.19Zm4.644,3.342a12.239,12.239,0,0,0-1.694.159,4.737,4.737,0,0,0-1.138.326,1.59,1.59,0,0,0-.639.476,1.038,1.038,0,0,0-.2.616,1.319,1.319,0,0,0,.1.555,1.01,1.01,0,0,0,.286.385,1.165,1.165,0,0,0,.429.217,1.919,1.919,0,0,0,.528.068,2.99,2.99,0,0,0,.7-.076,2.734,2.734,0,0,0,.592-.221,3.435,3.435,0,0,0,.534-.348,4.951,4.951,0,0,0,.5-.46Z" transform="translate(-358.478 -296.348)" fill="#2d2d2d"/><path d="M398.643,301.243a4.943,4.943,0,0,1,.565-.542,3.761,3.761,0,0,1,.635-.416,3.311,3.311,0,0,1,.709-.266,3.362,3.362,0,0,1,.812-.093,2.96,2.96,0,0,1,1.183.221,2.313,2.313,0,0,1,.856.631,2.74,2.74,0,0,1,.521.981,4.276,4.276,0,0,1,.179,1.268v5.207h-1.445v-5.207a2.191,2.191,0,0,0-.425-1.441,1.567,1.567,0,0,0-1.288-.515,2.4,2.4,0,0,0-1.19.309,3.927,3.927,0,0,0-1.023.831v6.022h-1.445v-8.178h.864a.356.356,0,0,1,.381.3Z" transform="translate(-354.289 -296.341)" fill="#2d2d2d"/><path d="M408.908,298.08v11.893h-.855a.366.366,0,0,1-.388-.3l-.13-.994a4.455,4.455,0,0,1-1.194,1.018,3.04,3.04,0,0,1-1.55.388,2.952,2.952,0,0,1-1.276-.272,2.647,2.647,0,0,1-.977-.794,3.779,3.779,0,0,1-.621-1.309,6.644,6.644,0,0,1-.219-1.8,5.664,5.664,0,0,1,.243-1.684,4.1,4.1,0,0,1,.7-1.352,3.228,3.228,0,0,1,1.109-.9,3.3,3.3,0,0,1,1.484-.326,2.974,2.974,0,0,1,1.288.254,3.135,3.135,0,0,1,.956.7V298.08Zm-1.437,5.661a2.331,2.331,0,0,0-.872-.755,2.505,2.505,0,0,0-1.049-.214,2.065,2.065,0,0,0-1.754.816,3.8,3.8,0,0,0-.612,2.325,5.939,5.939,0,0,0,.136,1.369,2.612,2.612,0,0,0,.4.936,1.586,1.586,0,0,0,.654.538,2.18,2.18,0,0,0,.88.169,2.317,2.317,0,0,0,1.239-.324,3.5,3.5,0,0,0,.973-.911Z" transform="translate(-350.132 -298.08)" fill="#2d2d2d"/><path d="M408.711,308.234v-8.178h.864a.356.356,0,0,1,.381.3l.1.841a4.177,4.177,0,0,1,1.02-.913,2.4,2.4,0,0,1,1.307-.355,1.923,1.923,0,0,1,1.336.46,2.6,2.6,0,0,1,.74,1.245,2.639,2.639,0,0,1,.454-.767,2.591,2.591,0,0,1,.627-.534,2.641,2.641,0,0,1,.738-.307,3.323,3.323,0,0,1,.8-.1,3.017,3.017,0,0,1,1.15.206,2.278,2.278,0,0,1,.857.6,2.65,2.65,0,0,1,.536.973,4.237,4.237,0,0,1,.186,1.321v5.207h-1.445v-5.207a2.221,2.221,0,0,0-.419-1.459,1.506,1.506,0,0,0-1.212-.5,1.83,1.83,0,0,0-.674.126,1.618,1.618,0,0,0-.561.367,1.714,1.714,0,0,0-.385.61,2.384,2.384,0,0,0-.14.853v5.207h-1.447v-5.207a2.287,2.287,0,0,0-.4-1.47,1.4,1.4,0,0,0-1.154-.486,1.809,1.809,0,0,0-.985.287,3.326,3.326,0,0,0-.833.779v6.1Z" transform="translate(-343.524 -296.341)" fill="#2d2d2d"/><path d="M417.486,299.17a.885.885,0,0,1-.085.392,1.135,1.135,0,0,1-.225.322,1.03,1.03,0,0,1-.332.223,1,1,0,0,1-.4.08.937.937,0,0,1-.39-.08.994.994,0,0,1-.318-.223,1.038,1.038,0,0,1-.218-.322.911.911,0,0,1-.082-.392.969.969,0,0,1,.082-.4,1.036,1.036,0,0,1,.218-.332.988.988,0,0,1,.318-.221.937.937,0,0,1,.39-.08,1,1,0,0,1,.4.08,1.025,1.025,0,0,1,.332.221,1.127,1.127,0,0,1,.225.332A.941.941,0,0,1,417.486,299.17Zm-.307,2.569v8.178h-1.437V301.74Z" transform="translate(-337.19 -298.024)" fill="#2d2d2d"/><path d="M424.528,298.08v11.893h-.854a.366.366,0,0,1-.388-.3l-.13-.994a4.424,4.424,0,0,1-1.194,1.018,3.035,3.035,0,0,1-1.55.388,2.951,2.951,0,0,1-1.276-.272,2.646,2.646,0,0,1-.977-.794,3.779,3.779,0,0,1-.622-1.309,6.646,6.646,0,0,1-.219-1.8,5.666,5.666,0,0,1,.243-1.684,4.143,4.143,0,0,1,.7-1.352,3.245,3.245,0,0,1,1.109-.9,3.3,3.3,0,0,1,1.484-.326,2.968,2.968,0,0,1,1.288.254,3.134,3.134,0,0,1,.956.7V298.08Zm-1.437,5.661a2.33,2.33,0,0,0-.872-.755,2.5,2.5,0,0,0-1.049-.214,2.065,2.065,0,0,0-1.754.816,3.8,3.8,0,0,0-.612,2.325,5.932,5.932,0,0,0,.136,1.369,2.647,2.647,0,0,0,.4.936,1.586,1.586,0,0,0,.655.538,2.18,2.18,0,0,0,.88.169,2.312,2.312,0,0,0,1.239-.324,3.5,3.5,0,0,0,.973-.911Z" transform="translate(-335.417 -298.08)" fill="#2d2d2d"/><path d="M429.184,298.08v11.893h-.855a.368.368,0,0,1-.388-.3l-.13-.994a4.4,4.4,0,0,1-1.194,1.018,3.035,3.035,0,0,1-1.55.388,2.951,2.951,0,0,1-1.276-.272,2.645,2.645,0,0,1-.977-.794,3.813,3.813,0,0,1-.621-1.309,6.723,6.723,0,0,1-.218-1.8,5.664,5.664,0,0,1,.243-1.684,4.139,4.139,0,0,1,.693-1.352,3.245,3.245,0,0,1,1.109-.9,3.3,3.3,0,0,1,1.484-.326,2.962,2.962,0,0,1,1.288.254,3.088,3.088,0,0,1,.956.7V298.08Zm-1.437,5.661a2.316,2.316,0,0,0-.872-.755,2.5,2.5,0,0,0-1.049-.214,2.061,2.061,0,0,0-1.752.816,3.8,3.8,0,0,0-.614,2.325,5.926,5.926,0,0,0,.138,1.369,2.577,2.577,0,0,0,.4.936,1.58,1.58,0,0,0,.653.538,2.189,2.189,0,0,0,.882.169,2.305,2.305,0,0,0,1.237-.324,3.5,3.5,0,0,0,.973-.911Z" transform="translate(-331.028 -298.08)" fill="#2d2d2d"/><path d="M428.322,298.08v11.893h-1.437V298.08Z" transform="translate(-326.403 -298.08)" fill="#2d2d2d"/><path d="M435.687,307.089a2.768,2.768,0,0,1-.637.561,4.046,4.046,0,0,1-.8.392,4.966,4.966,0,0,1-.876.229,5.41,5.41,0,0,1-.9.078,4.177,4.177,0,0,1-1.563-.287,3.452,3.452,0,0,1-1.235-.841,3.831,3.831,0,0,1-.812-1.367,5.558,5.558,0,0,1-.291-1.872,4.73,4.73,0,0,1,.264-1.6,3.793,3.793,0,0,1,.754-1.288,3.469,3.469,0,0,1,1.2-.857,3.938,3.938,0,0,1,1.6-.311,3.712,3.712,0,0,1,1.361.247,3.1,3.1,0,0,1,1.082.711,3.275,3.275,0,0,1,.715,1.146,4.359,4.359,0,0,1,.258,1.554.957.957,0,0,1-.072.453.306.306,0,0,1-.276.113H430a4.7,4.7,0,0,0,.216,1.35,2.661,2.661,0,0,0,.526.955,2.151,2.151,0,0,0,.808.575,2.782,2.782,0,0,0,1.051.19,3.066,3.066,0,0,0,.932-.126,4.367,4.367,0,0,0,.674-.27c.188-.1.346-.186.474-.27a.626.626,0,0,1,.326-.126.316.316,0,0,1,.274.138Zm-1.161-3.836a2.81,2.81,0,0,0-.144-.917,2.006,2.006,0,0,0-.412-.719,1.82,1.82,0,0,0-.656-.468,2.49,2.49,0,0,0-2.515.437,2.819,2.819,0,0,0-.748,1.666Z" transform="translate(-324.805 -296.341)" fill="#2d2d2d"/><path d="M442.323,298.08v11.893h-.855a.366.366,0,0,1-.388-.3l-.13-.994a4.454,4.454,0,0,1-1.194,1.018,3.04,3.04,0,0,1-1.55.388,2.951,2.951,0,0,1-1.276-.272,2.645,2.645,0,0,1-.977-.794,3.778,3.778,0,0,1-.621-1.309,6.641,6.641,0,0,1-.219-1.8,5.664,5.664,0,0,1,.243-1.684,4.105,4.105,0,0,1,.7-1.352,3.227,3.227,0,0,1,1.109-.9,3.3,3.3,0,0,1,1.484-.326,2.974,2.974,0,0,1,1.288.254,3.134,3.134,0,0,1,.956.7V298.08Zm-1.437,5.661a2.331,2.331,0,0,0-.872-.755,2.5,2.5,0,0,0-1.049-.214,2.065,2.065,0,0,0-1.754.816,3.8,3.8,0,0,0-.612,2.325,5.935,5.935,0,0,0,.136,1.369,2.611,2.611,0,0,0,.4.936,1.586,1.586,0,0,0,.654.538,2.18,2.18,0,0,0,.88.169,2.317,2.317,0,0,0,1.239-.324,3.5,3.5,0,0,0,.973-.911Z" transform="translate(-318.652 -298.08)" fill="#2d2d2d"/><path d="M441.933,299.17a.912.912,0,0,1-.083.392,1.183,1.183,0,0,1-.227.322,1.031,1.031,0,0,1-.332.223,1,1,0,0,1-.4.08.943.943,0,0,1-.39-.08,1.015,1.015,0,0,1-.318-.223,1.036,1.036,0,0,1-.218-.322.94.94,0,0,1-.082-.392,1,1,0,0,1,.082-.4,1.034,1.034,0,0,1,.218-.332,1.009,1.009,0,0,1,.318-.221.943.943,0,0,1,.39-.08,1,1,0,0,1,.4.08,1.026,1.026,0,0,1,.332.221,1.172,1.172,0,0,1,.227.332A.97.97,0,0,1,441.933,299.17Zm-.307,2.569v8.178h-1.437V301.74Z" transform="translate(-314.158 -298.024)" fill="#2d2d2d"/><path d="M447.046,301.4a.317.317,0,0,1-.3.179.577.577,0,0,1-.276-.089c-.1-.058-.227-.126-.375-.2a3.632,3.632,0,0,0-.528-.2,2.517,2.517,0,0,0-.726-.093,2.129,2.129,0,0,0-.654.093,1.557,1.557,0,0,0-.5.254,1.129,1.129,0,0,0-.315.375,1.02,1.02,0,0,0-.109.464.772.772,0,0,0,.183.526,1.575,1.575,0,0,0,.48.363,4.294,4.294,0,0,0,.676.27q.382.116.781.251c.266.089.526.186.779.3a2.75,2.75,0,0,1,.68.4,1.88,1.88,0,0,1,.48.592,1.819,1.819,0,0,1,.183.843,2.683,2.683,0,0,1-.2,1.047,2.239,2.239,0,0,1-.6.831,2.832,2.832,0,0,1-.967.554,4,4,0,0,1-1.325.2,4.112,4.112,0,0,1-1.55-.28,3.953,3.953,0,0,1-1.179-.713l.338-.55a.511.511,0,0,1,.153-.161.411.411,0,0,1,.227-.056.545.545,0,0,1,.307.113q.163.114.39.251a3.059,3.059,0,0,0,.561.251,2.574,2.574,0,0,0,.825.113,2.227,2.227,0,0,0,.734-.111,1.52,1.52,0,0,0,.524-.293,1.149,1.149,0,0,0,.311-.429,1.312,1.312,0,0,0,.1-.517.865.865,0,0,0-.181-.561,1.545,1.545,0,0,0-.482-.379,3.836,3.836,0,0,0-.682-.274c-.256-.078-.517-.161-.783-.247s-.528-.185-.785-.3a2.72,2.72,0,0,1-.682-.416,1.864,1.864,0,0,1-.48-.618,1.986,1.986,0,0,1-.183-.893,2.189,2.189,0,0,1,.192-.9,2.267,2.267,0,0,1,.565-.759,2.824,2.824,0,0,1,.915-.521,3.632,3.632,0,0,1,1.235-.194,3.923,3.923,0,0,1,1.449.254,3.432,3.432,0,0,1,1.111.7Z" transform="translate(-312.459 -296.341)" fill="#2d2d2d"/><path d="M453.567,309.946h-1.435V302.97h-4.216v4.91a1.045,1.045,0,0,0,.25.767.875.875,0,0,0,.647.251,1.13,1.13,0,0,0,.39-.06,1.638,1.638,0,0,0,.285-.134c.082-.049.15-.093.208-.134a.276.276,0,0,1,.15-.06.247.247,0,0,1,.2.138l.421.688a2.7,2.7,0,0,1-.9.544,3.04,3.04,0,0,1-1.082.2,1.979,1.979,0,0,1-1.49-.54,2.162,2.162,0,0,1-.52-1.56V302.97h-.985a.328.328,0,0,1-.219-.076.3.3,0,0,1-.087-.239v-.573l1.34-.179.33-2.519a.354.354,0,0,1,.111-.2.319.319,0,0,1,.221-.076h.726v2.818h5.651Zm.357-10.8a.913.913,0,0,1-.086.392,1.1,1.1,0,0,1-.227.318,1.034,1.034,0,0,1-.328.219,1.011,1.011,0,0,1-.787,0,1.037,1.037,0,0,1-.319-.219,1.009,1.009,0,0,1-.217-.318.939.939,0,0,1-.08-.392,1.008,1.008,0,0,1,.08-.4,1.061,1.061,0,0,1,.217-.33,1.044,1.044,0,0,1,.319-.221.988.988,0,0,1,.787,0,1.04,1.04,0,0,1,.328.221,1.161,1.161,0,0,1,.227.33A.981.981,0,0,1,453.925,299.142Z" transform="translate(-309.16 -298.053)" fill="#2d2d2d"/><path d="M452.179,298.08v11.893h-1.437V298.08Z" transform="translate(-303.927 -298.08)" fill="#2d2d2d"/><path d="M454.141,298.08v11.893H452.7V298.08Z" transform="translate(-302.079 -298.08)" fill="#2d2d2d"/><path d="M454.73,301.217a4.711,4.711,0,0,1,1.46-.977,4.563,4.563,0,0,1,1.738-.322,3.116,3.116,0,0,1,1.218.225,2.51,2.51,0,0,1,.9.631,2.683,2.683,0,0,1,.55.977,4.105,4.105,0,0,1,.185,1.258v5.232h-.639a.618.618,0,0,1-.322-.068.467.467,0,0,1-.177-.27l-.161-.775c-.217.2-.425.375-.631.528a3.429,3.429,0,0,1-.647.386,3.36,3.36,0,0,1-.722.243,3.954,3.954,0,0,1-.851.085,2.98,2.98,0,0,1-.9-.132,2.046,2.046,0,0,1-.732-.4,1.83,1.83,0,0,1-.491-.674,2.323,2.323,0,0,1-.183-.963,1.81,1.81,0,0,1,.266-.934,2.338,2.338,0,0,1,.864-.794,5.614,5.614,0,0,1,1.558-.569,11.779,11.779,0,0,1,2.36-.254v-.639a2.191,2.191,0,0,0-.412-1.441,1.489,1.489,0,0,0-1.2-.489,2.565,2.565,0,0,0-.891.134,3.337,3.337,0,0,0-.623.3c-.173.111-.324.21-.453.3a.652.652,0,0,1-.373.132.409.409,0,0,1-.251-.076.7.7,0,0,1-.179-.19Zm4.644,3.342a12.18,12.18,0,0,0-1.692.159,4.728,4.728,0,0,0-1.14.326,1.569,1.569,0,0,0-.637.476,1.026,1.026,0,0,0-.2.616,1.349,1.349,0,0,0,.1.555,1.029,1.029,0,0,0,.286.385,1.18,1.18,0,0,0,.429.217,1.919,1.919,0,0,0,.528.068,2.989,2.989,0,0,0,.7-.076,2.788,2.788,0,0,0,.594-.221,3.513,3.513,0,0,0,.532-.348,4.944,4.944,0,0,0,.5-.46Z" transform="translate(-300.55 -296.348)" fill="#2d2d2d"/><path d="M461.668,309.59a1.974,1.974,0,0,1-1.488-.54,2.162,2.162,0,0,1-.522-1.56v-5.007h-.985a.319.319,0,0,1-.218-.076.3.3,0,0,1-.089-.239V301.6l1.342-.169.33-2.529a.351.351,0,0,1,.109-.2.323.323,0,0,1,.221-.076h.726v2.818h2.367v1.041h-2.367v4.91a1.045,1.045,0,0,0,.25.767.878.878,0,0,0,.647.251,1.134,1.134,0,0,0,.392-.06,1.708,1.708,0,0,0,.285-.134c.082-.049.15-.093.206-.134a.287.287,0,0,1,.151-.06.247.247,0,0,1,.2.138l.421.688a2.7,2.7,0,0,1-.9.544A3.051,3.051,0,0,1,461.668,309.59Z" transform="translate(-296.744 -297.567)" fill="#2d2d2d"/><path d="M468.62,307.089a2.771,2.771,0,0,1-.637.561,4.046,4.046,0,0,1-.8.392,4.94,4.94,0,0,1-.878.229,5.392,5.392,0,0,1-.9.078,4.167,4.167,0,0,1-1.561-.287,3.452,3.452,0,0,1-1.235-.841,3.8,3.8,0,0,1-.812-1.367,5.508,5.508,0,0,1-.291-1.872,4.778,4.778,0,0,1,.262-1.6,3.767,3.767,0,0,1,.755-1.288,3.479,3.479,0,0,1,1.2-.857,3.944,3.944,0,0,1,1.6-.311,3.722,3.722,0,0,1,1.363.247,3.1,3.1,0,0,1,1.08.711,3.219,3.219,0,0,1,.715,1.146,4.359,4.359,0,0,1,.258,1.554.933.933,0,0,1-.072.453.3.3,0,0,1-.274.113h-5.467a4.769,4.769,0,0,0,.214,1.35,2.694,2.694,0,0,0,.528.955,2.151,2.151,0,0,0,.808.575,2.782,2.782,0,0,0,1.051.19,3.044,3.044,0,0,0,.93-.126,4.474,4.474,0,0,0,.676-.27,5.132,5.132,0,0,0,.472-.27.632.632,0,0,1,.326-.126.317.317,0,0,1,.276.138Zm-1.163-3.836a2.813,2.813,0,0,0-.142-.917,2.036,2.036,0,0,0-.412-.719,1.827,1.827,0,0,0-.658-.468,2.49,2.49,0,0,0-2.515.437,2.806,2.806,0,0,0-.746,1.666Z" transform="translate(-293.779 -296.341)" fill="#2d2d2d"/></g><g transform="translate(200.348 305.252)"><path d="M194.152,300.075v2.092H185.11v-2.092h3.311v-9.53c0-.377.012-.763.035-1.165l-2.352,1.969a.965.965,0,0,1-.4.2.934.934,0,0,1-.684-.113.652.652,0,0,1-.2-.186l-.882-1.21,4.983-4.24h2.3v14.278Z" transform="translate(-183.935 -285.651)" fill="#129d4f"/><path d="M195.363,291.744l-.565.7a4.709,4.709,0,0,1,1.023-.369,5.179,5.179,0,0,1,1.181-.128,5.433,5.433,0,0,1,1.8.3,4.373,4.373,0,0,1,1.542.921,4.65,4.65,0,0,1,1.076,1.532,5.24,5.24,0,0,1,.406,2.136,5.513,5.513,0,0,1-.418,2.142,5.335,5.335,0,0,1-1.177,1.748,5.492,5.492,0,0,1-1.826,1.175,6.76,6.76,0,0,1-4.71.012,5.14,5.14,0,0,1-1.773-1.171,5.028,5.028,0,0,1-1.124-1.808,6.682,6.682,0,0,1-.39-2.346,6.563,6.563,0,0,1,.468-2.369,10.713,10.713,0,0,1,1.453-2.525l3.9-5.234a1.6,1.6,0,0,1,.592-.464,2.008,2.008,0,0,1,.9-.192h2.486Zm.633,8.308a3.271,3.271,0,0,0,1.227-.225,2.82,2.82,0,0,0,.961-.633,2.991,2.991,0,0,0,.627-.956,3.119,3.119,0,0,0,.225-1.192,3.523,3.523,0,0,0-.214-1.26,2.581,2.581,0,0,0-1.561-1.544,3.5,3.5,0,0,0-1.22-.2,3.1,3.1,0,0,0-1.21.225,2.733,2.733,0,0,0-.928.627,2.914,2.914,0,0,0-.6.95,3.2,3.2,0,0,0-.216,1.181,3.9,3.9,0,0,0,.186,1.239,2.594,2.594,0,0,0,.555.956,2.511,2.511,0,0,0,.909.616A3.348,3.348,0,0,0,196,300.052Z" transform="translate(-177.832 -285.64)" fill="#129d4f"/><path d="M204.675,289.847a4.308,4.308,0,0,1-.311,1.674,3.916,3.916,0,0,1-.831,1.272,3.618,3.618,0,0,1-1.208.808,3.76,3.76,0,0,1-1.437.282,3.93,3.93,0,0,1-1.5-.282,3.442,3.442,0,0,1-1.192-.808,3.72,3.72,0,0,1-.785-1.272,4.658,4.658,0,0,1-.284-1.674,4.909,4.909,0,0,1,.284-1.719,3.734,3.734,0,0,1,.785-1.3,3.472,3.472,0,0,1,1.192-.82,4.089,4.089,0,0,1,3.012,0,3.5,3.5,0,0,1,1.2.82,3.692,3.692,0,0,1,.792,1.3A4.955,4.955,0,0,1,204.675,289.847Zm5.438-3.515a1.814,1.814,0,0,1,.346-.3.976.976,0,0,1,.559-.136h2.035L200.911,301.82a1.324,1.324,0,0,1-.35.3.994.994,0,0,1-.5.118h-2.08Zm-7.586,3.515a3.9,3.9,0,0,0-.13-1.1,1.987,1.987,0,0,0-.35-.713,1.277,1.277,0,0,0-.52-.39,1.7,1.7,0,0,0-.639-.118,1.67,1.67,0,0,0-.633.118,1.186,1.186,0,0,0-.5.39,2.011,2.011,0,0,0-.334.713,4.07,4.07,0,0,0-.124,1.1,3.8,3.8,0,0,0,.124,1.058,1.9,1.9,0,0,0,.334.684,1.175,1.175,0,0,0,.5.373,1.745,1.745,0,0,0,.633.113,1.776,1.776,0,0,0,.639-.113,1.268,1.268,0,0,0,.52-.373,1.885,1.885,0,0,0,.35-.684A3.641,3.641,0,0,0,202.527,289.847Zm11.385,8.547a4.333,4.333,0,0,1-.311,1.672,3.936,3.936,0,0,1-.831,1.272,3.74,3.74,0,0,1-2.645,1.1,3.854,3.854,0,0,1-1.5-.289,3.484,3.484,0,0,1-1.192-.814,3.688,3.688,0,0,1-.787-1.272,4.689,4.689,0,0,1-.284-1.672,4.954,4.954,0,0,1,.284-1.719,3.72,3.72,0,0,1,.787-1.3,3.445,3.445,0,0,1,1.192-.82,3.854,3.854,0,0,1,1.5-.289,3.9,3.9,0,0,1,1.509.289,3.433,3.433,0,0,1,1.2.82,3.791,3.791,0,0,1,.792,1.3A4.907,4.907,0,0,1,213.912,298.394Zm-2.16,0a4.086,4.086,0,0,0-.124-1.1,2.016,2.016,0,0,0-.344-.713,1.29,1.29,0,0,0-.52-.388,1.707,1.707,0,0,0-.639-.118,1.669,1.669,0,0,0-.633.118,1.256,1.256,0,0,0-.509.388,1.977,1.977,0,0,0-.334.713,4.364,4.364,0,0,0-.118,1.1,4.124,4.124,0,0,0,.118,1.062,1.828,1.828,0,0,0,.334.689,1.2,1.2,0,0,0,.509.373,1.744,1.744,0,0,0,.633.113,1.784,1.784,0,0,0,.639-.113,1.233,1.233,0,0,0,.52-.373,1.864,1.864,0,0,0,.344-.689A3.861,3.861,0,0,0,211.752,298.394Z" transform="translate(-171.51 -285.722)" fill="#129d4f"/></g><g transform="translate(166.513 329.252)"><path d="M167.958,302.885a4.32,4.32,0,0,1,1.163-.888,3.138,3.138,0,0,1,1.47-.332,2.96,2.96,0,0,1,1.183.221,2.329,2.329,0,0,1,.856.631,2.8,2.8,0,0,1,.52.981,4.276,4.276,0,0,1,.177,1.268v5.207h-1.445v-5.207a2.2,2.2,0,0,0-.423-1.441,1.574,1.574,0,0,0-1.29-.515,2.4,2.4,0,0,0-1.19.309,3.919,3.919,0,0,0-1.022.831v6.022h-1.445V298.08h1.445Z" transform="translate(-166.513 -298.08)" fill="#2d2d2d"/><path d="M178.018,307.089a2.741,2.741,0,0,1-.639.561,3.928,3.928,0,0,1-.794.392,4.964,4.964,0,0,1-.876.229,5.415,5.415,0,0,1-.9.078,4.167,4.167,0,0,1-1.561-.287,3.443,3.443,0,0,1-1.237-.841,3.856,3.856,0,0,1-.81-1.367,5.556,5.556,0,0,1-.291-1.872,4.778,4.778,0,0,1,.262-1.6,3.765,3.765,0,0,1,.755-1.288,3.5,3.5,0,0,1,1.2-.857,3.944,3.944,0,0,1,1.6-.311,3.7,3.7,0,0,1,1.361.247,3.1,3.1,0,0,1,1.082.711,3.219,3.219,0,0,1,.715,1.146,4.359,4.359,0,0,1,.258,1.554.933.933,0,0,1-.072.453.3.3,0,0,1-.276.113h-5.465a4.771,4.771,0,0,0,.214,1.35,2.694,2.694,0,0,0,.528.955,2.136,2.136,0,0,0,.808.575,2.779,2.779,0,0,0,1.049.19,3.088,3.088,0,0,0,.934-.126,4.446,4.446,0,0,0,.674-.27,5.126,5.126,0,0,0,.472-.27.626.626,0,0,1,.328-.126.315.315,0,0,1,.274.138Zm-1.163-3.836a2.811,2.811,0,0,0-.142-.917,2.035,2.035,0,0,0-.412-.719,1.854,1.854,0,0,0-.656-.468,2.494,2.494,0,0,0-2.517.437,2.831,2.831,0,0,0-.748,1.666Z" transform="translate(-162.369 -296.341)" fill="#2d2d2d"/><path d="M175.632,301.217a4.666,4.666,0,0,1,1.46-.977,4.546,4.546,0,0,1,1.736-.322,3.119,3.119,0,0,1,1.22.225,2.486,2.486,0,0,1,.9.631,2.627,2.627,0,0,1,.55.977,4.044,4.044,0,0,1,.186,1.258v5.232h-.639a.618.618,0,0,1-.322-.068.478.478,0,0,1-.179-.27l-.161-.775a7.707,7.707,0,0,1-.629.528,3.477,3.477,0,0,1-.645.386,3.434,3.434,0,0,1-.722.243,3.986,3.986,0,0,1-.853.085,2.992,2.992,0,0,1-.9-.132,2.071,2.071,0,0,1-.73-.4,1.881,1.881,0,0,1-.493-.674,2.356,2.356,0,0,1-.181-.963,1.792,1.792,0,0,1,.266-.934,2.323,2.323,0,0,1,.864-.794,5.59,5.59,0,0,1,1.558-.569,11.774,11.774,0,0,1,2.358-.254v-.639a2.18,2.18,0,0,0-.412-1.441,1.48,1.48,0,0,0-1.2-.489,2.584,2.584,0,0,0-.893.134,3.373,3.373,0,0,0-.621.3c-.175.111-.326.21-.453.3a.657.657,0,0,1-.375.132.416.416,0,0,1-.251-.076.719.719,0,0,1-.177-.19Zm4.642,3.342a12.209,12.209,0,0,0-1.692.159,4.737,4.737,0,0,0-1.138.326,1.556,1.556,0,0,0-.637.476,1.026,1.026,0,0,0-.2.616,1.35,1.35,0,0,0,.1.555,1.014,1.014,0,0,0,.287.385,1.157,1.157,0,0,0,.427.217,1.919,1.919,0,0,0,.528.068,2.989,2.989,0,0,0,.7-.076,2.734,2.734,0,0,0,.592-.221,3.436,3.436,0,0,0,.534-.348,4.936,4.936,0,0,0,.5-.46Z" transform="translate(-158.303 -296.348)" fill="#2d2d2d"/><path d="M187.024,299.993l-3.337,8.178H182.4l-3.335-8.178h1.171a.448.448,0,0,1,.445.3l2.074,5.265q.1.3.169.583c.049.188.1.377.138.565.043-.188.089-.377.138-.565s.107-.383.177-.583l2.1-5.265a.486.486,0,0,1,.161-.214.436.436,0,0,1,.268-.083Z" transform="translate(-154.692 -296.278)" fill="#2d2d2d"/><path d="M191.371,299.993l-4.564,10.594a.731.731,0,0,1-.181.256.485.485,0,0,1-.336.1h-1.066l1.5-3.247-3.375-7.7h1.243a.45.45,0,0,1,.3.091.486.486,0,0,1,.148.206l2.189,5.152a5.619,5.619,0,0,1,.219.711c.074-.253.155-.493.241-.719l2.125-5.145a.467.467,0,0,1,.165-.214.435.435,0,0,1,.262-.083Z" transform="translate(-150.657 -296.278)" fill="#2d2d2d"/><path d="M188.062,301.4h3.989v1.22h-3.989Z" transform="translate(-146.212 -294.954)" fill="#2d2d2d"/><path d="M198.083,307.089a2.742,2.742,0,0,1-.639.561,3.98,3.98,0,0,1-.794.392,4.964,4.964,0,0,1-.876.229,5.415,5.415,0,0,1-.9.078,4.166,4.166,0,0,1-1.561-.287,3.442,3.442,0,0,1-1.237-.841,3.888,3.888,0,0,1-.812-1.367,5.606,5.606,0,0,1-.289-1.872,4.778,4.778,0,0,1,.262-1.6,3.765,3.765,0,0,1,.755-1.288,3.479,3.479,0,0,1,1.2-.857,3.944,3.944,0,0,1,1.6-.311,3.7,3.7,0,0,1,1.361.247,3.1,3.1,0,0,1,1.082.711,3.247,3.247,0,0,1,.715,1.146,4.359,4.359,0,0,1,.258,1.554.933.933,0,0,1-.072.453.3.3,0,0,1-.276.113H192.4a4.839,4.839,0,0,0,.216,1.35,2.694,2.694,0,0,0,.528.955,2.136,2.136,0,0,0,.808.575,2.772,2.772,0,0,0,1.049.19,3.088,3.088,0,0,0,.934-.126,4.446,4.446,0,0,0,.674-.27,5.13,5.13,0,0,0,.472-.27.626.626,0,0,1,.328-.126.315.315,0,0,1,.274.138Zm-1.163-3.836a2.811,2.811,0,0,0-.142-.917,2.035,2.035,0,0,0-.412-.719,1.854,1.854,0,0,0-.656-.468,2.23,2.23,0,0,0-.882-.165,2.207,2.207,0,0,0-1.635.6,2.831,2.831,0,0,0-.748,1.666Z" transform="translate(-143.465 -296.341)" fill="#2d2d2d"/><path d="M196.965,301.243a4.936,4.936,0,0,1,.565-.542,3.838,3.838,0,0,1,.635-.416,3.288,3.288,0,0,1,.711-.266,3.346,3.346,0,0,1,.81-.093,2.953,2.953,0,0,1,1.183.221,2.3,2.3,0,0,1,.856.631,2.771,2.771,0,0,1,.521.981,4.276,4.276,0,0,1,.179,1.268v5.207h-1.445v-5.207a2.191,2.191,0,0,0-.425-1.441,1.567,1.567,0,0,0-1.288-.515,2.4,2.4,0,0,0-1.191.309,3.92,3.92,0,0,0-1.022.831v6.022h-1.445v-8.178h.864a.354.354,0,0,1,.379.3Z" transform="translate(-139.102 -296.341)" fill="#2d2d2d"/><path d="M207.231,298.08v11.893h-.856a.366.366,0,0,1-.386-.3l-.13-.994a4.455,4.455,0,0,1-1.194,1.018,3.04,3.04,0,0,1-1.55.388,2.945,2.945,0,0,1-1.276-.272,2.615,2.615,0,0,1-.977-.794,3.779,3.779,0,0,1-.623-1.309,6.8,6.8,0,0,1-.218-1.8,5.663,5.663,0,0,1,.243-1.684,4.137,4.137,0,0,1,.693-1.352,3.253,3.253,0,0,1,1.111-.9,3.29,3.29,0,0,1,1.482-.326,2.962,2.962,0,0,1,1.288.254,3.1,3.1,0,0,1,.957.7V298.08Zm-1.437,5.661a2.331,2.331,0,0,0-.872-.755,2.514,2.514,0,0,0-1.051-.214,2.064,2.064,0,0,0-1.752.816,3.817,3.817,0,0,0-.614,2.325,5.928,5.928,0,0,0,.138,1.369,2.612,2.612,0,0,0,.4.936,1.606,1.606,0,0,0,.653.538,2.2,2.2,0,0,0,.882.169,2.307,2.307,0,0,0,1.239-.324,3.557,3.557,0,0,0,.973-.911Z" transform="translate(-134.946 -298.08)" fill="#2d2d2d"/><path d="M209.958,301.4a.32.32,0,0,1-.3.179.577.577,0,0,1-.274-.089c-.1-.058-.227-.126-.375-.2a3.66,3.66,0,0,0-.53-.2,2.508,2.508,0,0,0-.726-.093,2.138,2.138,0,0,0-.654.093,1.546,1.546,0,0,0-.5.254,1.135,1.135,0,0,0-.317.375,1.02,1.02,0,0,0-.109.464.772.772,0,0,0,.183.526,1.624,1.624,0,0,0,.48.363,4.273,4.273,0,0,0,.68.27c.252.078.513.161.779.251s.524.186.779.3a2.737,2.737,0,0,1,.678.4,1.83,1.83,0,0,1,.48.592,1.8,1.8,0,0,1,.183.843,2.648,2.648,0,0,1-.2,1.047,2.278,2.278,0,0,1-.6.831,2.879,2.879,0,0,1-.969.554,4,4,0,0,1-1.324.2,4.112,4.112,0,0,1-1.55-.28,3.905,3.905,0,0,1-1.179-.713l.338-.55a.472.472,0,0,1,.153-.161.4.4,0,0,1,.225-.056.53.53,0,0,1,.307.113c.109.076.239.159.392.251a3,3,0,0,0,.561.251,2.562,2.562,0,0,0,.823.113,2.2,2.2,0,0,0,.734-.111,1.511,1.511,0,0,0,.526-.293,1.17,1.17,0,0,0,.311-.429,1.347,1.347,0,0,0,.1-.517.856.856,0,0,0-.183-.561,1.515,1.515,0,0,0-.48-.379,3.858,3.858,0,0,0-.684-.274c-.254-.078-.517-.161-.783-.247s-.526-.185-.783-.3a2.721,2.721,0,0,1-.682-.416,1.894,1.894,0,0,1-.482-.618,2.012,2.012,0,0,1-.183-.893,2.213,2.213,0,0,1,.761-1.659,2.8,2.8,0,0,1,.911-.521,3.636,3.636,0,0,1,1.237-.194,3.93,3.93,0,0,1,1.449.254,3.423,3.423,0,0,1,1.109.7Z" transform="translate(-130.633 -296.341)" fill="#2d2d2d"/></g><g transform="translate(271.225 564.788)"><path d="M236.287,423.014a9.8,9.8,0,0,1,1.822,2.3,5.648,5.648,0,0,1,.713,2.212,4.33,4.33,0,0,1-.322,2.066,6.09,6.09,0,0,1-1.262,1.878,5.833,5.833,0,0,1-1.864,1.325,4.872,4.872,0,0,1-2.119.4,5.673,5.673,0,0,1-2.272-.6,8.9,8.9,0,0,1-2.317-1.668l-1.934-1.866-4.445,4.609-1.855-1.787L232.5,419.359Zm-6.211,6.442a5.274,5.274,0,0,0,1.418,1.012,3.391,3.391,0,0,0,1.4.35,3,3,0,0,0,1.317-.276,3.871,3.871,0,0,0,1.179-.858,3.208,3.208,0,0,0,1.022-2.48,4.284,4.284,0,0,0-1.527-2.731l-1.934-1.868-4.807,4.985Z" transform="translate(-220.43 -419.359)" fill="#2d2d2d"/></g><g transform="translate(282.542 574.475)"><path d="M236.354,446.06l-1.781-1.457a1.075,1.075,0,0,1-.435-1.058l.487-7.386a1.3,1.3,0,0,0-.076-.618,1.615,1.615,0,0,0-.482-.557l-1.3-1.066-4.511,5.523-2-1.631,11-13.463,3.88,3.172a10.519,10.519,0,0,1,2.028,2.1,5.626,5.626,0,0,1,.936,2.029,3.882,3.882,0,0,1-.06,1.93,5.105,5.105,0,0,1-.975,1.8,5.258,5.258,0,0,1-1.3,1.146,4.439,4.439,0,0,1-1.54.59,5.148,5.148,0,0,1-1.711.019,6.567,6.567,0,0,1-1.8-.569,2.686,2.686,0,0,1,.134,1.158Zm-.585-12.109a5.774,5.774,0,0,0,1.509.919,3.552,3.552,0,0,0,1.414.27,2.789,2.789,0,0,0,1.257-.33,3.518,3.518,0,0,0,1.051-.888,2.678,2.678,0,0,0,.666-2.375,4.772,4.772,0,0,0-1.81-2.463l-1.884-1.538-4.02,4.919Z" transform="translate(-226.257 -424.347)" fill="#2d2d2d"/></g><g transform="translate(297.285 586.005)"><path d="M249.845,444.1a9.864,9.864,0,0,1-2.527,2.6,8.27,8.27,0,0,1-3.039,1.33,7.924,7.924,0,0,1-3.282-.019,9.775,9.775,0,0,1-5.819-3.964,7.848,7.848,0,0,1-1.22-3.049,8.358,8.358,0,0,1,.126-3.311,10.47,10.47,0,0,1,4.024-5.91,8.355,8.355,0,0,1,3.041-1.332,7.916,7.916,0,0,1,3.288.01,9.746,9.746,0,0,1,5.819,3.964,8.049,8.049,0,0,1,1.214,3.057,8.256,8.256,0,0,1-.128,3.319A9.927,9.927,0,0,1,249.845,444.1Zm-2.181-1.486a8.521,8.521,0,0,0,1.218-2.54,5.931,5.931,0,0,0,.185-2.41,5.213,5.213,0,0,0-.818-2.152,6.425,6.425,0,0,0-1.787-1.775,6.357,6.357,0,0,0-2.307-1.014,5.223,5.223,0,0,0-2.307.023,5.961,5.961,0,0,0-2.181,1.049,8.616,8.616,0,0,0-1.917,2.064,8.447,8.447,0,0,0-1.22,2.544,5.868,5.868,0,0,0-.177,2.406,5.24,5.24,0,0,0,.825,2.154,6.565,6.565,0,0,0,1.793,1.769,6.47,6.47,0,0,0,2.3,1.018,5.216,5.216,0,0,0,2.3-.021,5.953,5.953,0,0,0,2.171-1.049A8.5,8.5,0,0,0,247.664,442.617Z" transform="translate(-233.849 -430.284)" fill="#2d2d2d"/></g><g transform="translate(312.308 593.869)"><path d="M259.061,449.136a9.714,9.714,0,0,1-2.218,2.837,7.758,7.758,0,0,1-6.081,1.878,9.568,9.568,0,0,1-3.406-1.1l-5.772-3.074,8.172-15.345,5.77,3.072a9.5,9.5,0,0,1,2.814,2.21,7.751,7.751,0,0,1,1.833,6.1A9.712,9.712,0,0,1,259.061,449.136ZM256.73,447.9a8.547,8.547,0,0,0,.932-2.653,5.87,5.87,0,0,0-.085-2.4,5.086,5.086,0,0,0-1.057-2.037,6.458,6.458,0,0,0-1.973-1.558l-3.482-1.857-6.215,11.668,3.484,1.857a6.573,6.573,0,0,0,2.395.767,5.125,5.125,0,0,0,2.28-.26,5.93,5.93,0,0,0,2.039-1.266A8.519,8.519,0,0,0,256.73,447.9Z" transform="translate(-241.584 -434.333)" fill="#2d2d2d"/></g><g transform="translate(331.388 601.95)"><path d="M256.688,455.317a4.66,4.66,0,0,0,1.857.385,3.869,3.869,0,0,0,1.662-.383,4.393,4.393,0,0,0,1.381-1.07,5.976,5.976,0,0,0,1.02-1.68l3.995-9.732,2.375.975-4,9.732a7.965,7.965,0,0,1-1.519,2.424,6.264,6.264,0,0,1-4.737,2.072,8.22,8.22,0,0,1-5.4-2.218,6.32,6.32,0,0,1-1.476-2.2,6.425,6.425,0,0,1-.439-2.6,7.992,7.992,0,0,1,.623-2.795l4-9.73,2.387.979-3.993,9.718a6.041,6.041,0,0,0-.466,1.919,4.244,4.244,0,0,0,.223,1.732,3.876,3.876,0,0,0,.913,1.441A4.671,4.671,0,0,0,256.688,455.317Z" transform="translate(-251.408 -438.494)" fill="#2d2d2d"/></g><g transform="translate(348.194 609.953)"><path d="M271.732,457.647a.486.486,0,0,1,.309.272l.647,1.363a7.276,7.276,0,0,1-3.051,1.105,8.93,8.93,0,0,1-3.727-.416,8.611,8.611,0,0,1-3.082-1.622,7.531,7.531,0,0,1-1.967-2.509,8.244,8.244,0,0,1-.787-3.177,10.5,10.5,0,0,1,.482-3.612,10.043,10.043,0,0,1,1.645-3.257,8.27,8.27,0,0,1,2.492-2.179,7.931,7.931,0,0,1,3.109-.961,8.933,8.933,0,0,1,3.509.385,8.483,8.483,0,0,1,2.973,1.54,8.266,8.266,0,0,1,1.928,2.27l-1.161.9a.738.738,0,0,1-.264.146.584.584,0,0,1-.344-.014.97.97,0,0,1-.451-.379,7.584,7.584,0,0,0-.625-.726,5.936,5.936,0,0,0-2.729-1.612,6.051,6.051,0,0,0-2.4-.258,5.219,5.219,0,0,0-2.16.711,5.949,5.949,0,0,0-1.769,1.649,8.533,8.533,0,0,0-1.227,2.558,8.28,8.28,0,0,0-.394,2.828,6.16,6.16,0,0,0,.571,2.362,5.184,5.184,0,0,0,1.393,1.793,5.911,5.911,0,0,0,2.068,1.1,9.071,9.071,0,0,0,1.317.307,5.864,5.864,0,0,0,1.134.058,4.613,4.613,0,0,0,1.045-.167,6.329,6.329,0,0,0,1.045-.4,1.074,1.074,0,0,1,.237-.072A.542.542,0,0,1,271.732,457.647Z" transform="translate(-260.062 -442.615)" fill="#2d2d2d"/></g><g transform="translate(365.017 612.366)"><path d="M282.053,448.821l-5.4-1.156-3.193,14.89-2.511-.538,3.195-14.892-5.422-1.161.451-2.107,13.329,2.857Z" transform="translate(-268.724 -443.857)" fill="#2d2d2d"/></g><g transform="translate(382.919 616.505)"><path d="M289.595,449.483a.936.936,0,0,1-.284.276.569.569,0,0,1-.346.06.878.878,0,0,1-.474-.251c-.171-.153-.386-.326-.645-.52a5.375,5.375,0,0,0-.946-.55,4.3,4.3,0,0,0-1.363-.346,4.128,4.128,0,0,0-1.352.058,2.816,2.816,0,0,0-1.016.441,2.272,2.272,0,0,0-.668.746,2.554,2.554,0,0,0-.3.983,1.826,1.826,0,0,0,.233,1.194,3.062,3.062,0,0,0,.849.882,7.335,7.335,0,0,0,1.253.7q.711.32,1.453.66a14.966,14.966,0,0,1,1.443.755,5.328,5.328,0,0,1,1.222.987,3.956,3.956,0,0,1,.8,1.354,4.232,4.232,0,0,1,.163,1.847,5.871,5.871,0,0,1-.62,2.1,5.1,5.1,0,0,1-1.321,1.625,5.341,5.341,0,0,1-1.962.981,6.788,6.788,0,0,1-2.519.165,8.2,8.2,0,0,1-1.6-.332,8.05,8.05,0,0,1-1.433-.618,7.374,7.374,0,0,1-1.229-.847,6.474,6.474,0,0,1-.992-1.049l.866-1.15a.925.925,0,0,1,.284-.214.634.634,0,0,1,.352-.062,1.024,1.024,0,0,1,.557.328c.2.2.452.423.757.67a6.246,6.246,0,0,0,1.105.709,4.608,4.608,0,0,0,1.628.439,4.492,4.492,0,0,0,1.443-.058,2.915,2.915,0,0,0,1.117-.491,2.643,2.643,0,0,0,.755-.878,3.143,3.143,0,0,0,.359-1.2,2.077,2.077,0,0,0-.216-1.274,2.909,2.909,0,0,0-.843-.907,6.664,6.664,0,0,0-1.255-.691c-.474-.2-.957-.416-1.455-.635s-.977-.464-1.445-.73a4.972,4.972,0,0,1-1.222-.989,3.851,3.851,0,0,1-.789-1.412,4.827,4.827,0,0,1-.144-1.981,4.64,4.64,0,0,1,.552-1.754,4.548,4.548,0,0,1,1.218-1.425,5.239,5.239,0,0,1,1.816-.891,6.27,6.27,0,0,1,2.354-.157,7.525,7.525,0,0,1,2.63.748,6.271,6.271,0,0,1,1.985,1.556Z" transform="translate(-277.942 -445.988)" fill="#2d2d2d"/></g><g transform="translate(397.938 617.425)"><path d="M295.694,462.016l-.076,2.165-9.944-.346.608-17.374,2.577.089-.532,15.207Z" transform="translate(-285.675 -446.462)" fill="#2d2d2d"/></g><g transform="translate(409.182 617.444)"><path d="M307.9,463.53l-1.987.089a.9.9,0,0,1-.563-.144.974.974,0,0,1-.336-.423l-1.711-3.96-7.656.342-1.359,4.1a.986.986,0,0,1-.293.431.852.852,0,0,1-.55.212l-1.983.089,6.143-17.675,2.6-.117Zm-5.382-6.244-2.878-6.623a14.652,14.652,0,0,1-.633-1.717c-.074.352-.15.68-.229.981s-.157.573-.235.81l-2.264,6.828Z" transform="translate(-291.465 -446.472)" fill="#2d2d2d"/></g><g transform="translate(423.055 615.601)"><path d="M312.4,447.661l-5.483.66,1.818,15.119-2.546.309-1.82-15.123-5.506.664-.258-2.138,13.536-1.629Z" transform="translate(-298.608 -445.523)" fill="#2d2d2d"/></g><g transform="translate(438.522 613.108)"><path d="M320.141,459.23l.4,2.057-10.567,2.107-3.4-17.048,10.567-2.107.41,2.051-8.025,1.6,1.076,5.4,6.459-1.288.394,1.983L311,455.276l1.109,5.558Z" transform="translate(-306.572 -444.239)" fill="#2d2d2d"/></g><g transform="translate(457.457 607.639)"><path d="M319.426,445.888l1.752,5.551,6.65-2.1.633,2-6.65,2.1,2.224,7.03-2.472.779-5.24-16.576,10.276-3.247.629,2Z" transform="translate(-316.322 -441.423)" fill="#2d2d2d"/></g><g transform="translate(467.935 601.884)"><path d="M333.944,450.59l2.583,6.376-2.379.963-2.583-6.374-9.848-7.347,2.1-.849a.838.838,0,0,1,.565-.054,1.269,1.269,0,0,1,.476.27l5.943,4.607c.252.219.489.429.7.627s.418.4.6.606c-.014-.274-.017-.555-.01-.847s.027-.6.058-.938l1.047-7.438a1.574,1.574,0,0,1,.157-.5.772.772,0,0,1,.429-.375l2.109-.857Z" transform="translate(-321.717 -438.46)" fill="#2d2d2d"/></g><g transform="translate(489.902 595.652)"><path d="M347.534,447.412l.855,1.589-8.27,4.453-.856-1.585,3.241-1.746-5.4-10.031c-.173-.32-.342-.654-.5-1.008l-1.412,3.607a.866.866,0,0,1-.219.311.9.9,0,0,1-.274.163.642.642,0,0,1-.287.033.952.952,0,0,1-.243-.052l-1.136-.555,2.455-6.424,1.694-.915L344.583,449Z" transform="translate(-333.028 -435.251)" fill="#2d2d2d"/></g><g transform="translate(501.197 588.562)"><path d="M348.32,438.374a4.747,4.747,0,0,1,2.917-.019,4.289,4.289,0,0,1,2.181,1.839,4.805,4.805,0,0,1,.754,1.962,4.434,4.434,0,0,1-.175,1.971,5.468,5.468,0,0,1-1.031,1.855,7.9,7.9,0,0,1-1.824,1.593,7.788,7.788,0,0,1-2.208,1,5.522,5.522,0,0,1-2.113.171,4.462,4.462,0,0,1-1.866-.662,4.811,4.811,0,0,1-1.476-1.5,4.313,4.313,0,0,1-.765-2.746,4.737,4.737,0,0,1,1.229-2.649,4.078,4.078,0,0,1-2.523-.183,4.2,4.2,0,0,1-1.87-1.653,4.3,4.3,0,0,1-.542-3.54,5.005,5.005,0,0,1,.888-1.721,6.836,6.836,0,0,1,3.645-2.344,5.02,5.02,0,0,1,1.934-.1,4.319,4.319,0,0,1,2.993,1.962A4.23,4.23,0,0,1,349.2,436,4.113,4.113,0,0,1,348.32,438.374Zm-5.813-4.22a3.531,3.531,0,0,0-.981.9,2.685,2.685,0,0,0-.46,1.025,2.494,2.494,0,0,0,.012,1.058,3.065,3.065,0,0,0,.429,1.016,3.89,3.89,0,0,0,.74.843,2.566,2.566,0,0,0,.956.524,2.536,2.536,0,0,0,1.142.062,3.444,3.444,0,0,0,1.309-.538,3.407,3.407,0,0,0,1.027-.963,2.578,2.578,0,0,0,.422-1.07,2.676,2.676,0,0,0-.08-1.086,3.746,3.746,0,0,0-.464-1.02,3.1,3.1,0,0,0-.746-.816,2.568,2.568,0,0,0-.957-.451,2.663,2.663,0,0,0-1.123,0A3.5,3.5,0,0,0,342.507,434.154Zm7.617,11.841a4.3,4.3,0,0,0,1.109-.989,3.058,3.058,0,0,0,.565-1.132,2.669,2.669,0,0,0,.029-1.208,3.387,3.387,0,0,0-.493-1.192,3.441,3.441,0,0,0-1.024-1.076,2.754,2.754,0,0,0-1.175-.439,3.091,3.091,0,0,0-1.241.107,4.865,4.865,0,0,0-2.249,1.447,3.078,3.078,0,0,0-.612,1.086,2.71,2.71,0,0,0-.083,1.249,3.553,3.553,0,0,0,.561,1.373,3.426,3.426,0,0,0,.88.944,2.689,2.689,0,0,0,1.109.474,3.136,3.136,0,0,0,1.27-.045A4.348,4.348,0,0,0,350.124,445.995Z" transform="translate(-338.844 -431.6)" fill="#2d2d2d"/></g><g transform="translate(516.083 588.991)"><path d="M346.509,435.412l4.871-3.591,1.19,1.618L347.7,437.03Z" transform="translate(-346.509 -431.821)" fill="#2d2d2d"/></g><g transform="translate(520.764 575.279)"><path d="M364.1,434.559l1.161,1.381-7.194,6.046-1.161-1.381,2.818-2.365-7.329-8.722c-.235-.276-.466-.573-.7-.886l-.649,3.82a.806.806,0,0,1-.153.348.818.818,0,0,1-.235.216.637.637,0,0,1-.272.091.865.865,0,0,1-.247,0l-1.227-.311,1.093-6.79,1.472-1.241,10.052,11.956Z" transform="translate(-348.919 -424.761)" fill="#2d2d2d"/></g><g transform="translate(529.838 565.615)"><path d="M363.913,428.216c-.064-.513-.136-1.008-.219-1.482a4.8,4.8,0,0,1-.513,1.558,5.563,5.563,0,0,1-1.043,1.381,5.188,5.188,0,0,1-1.536,1.055,4.5,4.5,0,0,1-1.779.4,4.59,4.59,0,0,1-1.866-.365,5.437,5.437,0,0,1-1.787-1.247,5.567,5.567,0,0,1-1.2-1.826,5.314,5.314,0,0,1-.375-2.084,5.665,5.665,0,0,1,.489-2.127,6.3,6.3,0,0,1,1.381-1.958,6.189,6.189,0,0,1,1.93-1.325,5.04,5.04,0,0,1,2.066-.41,5.168,5.168,0,0,1,2.053.484,6.354,6.354,0,0,1,1.893,1.352,7.321,7.321,0,0,1,.917,1.132,8.085,8.085,0,0,1,.66,1.241,9.943,9.943,0,0,1,.451,1.359c.122.476.229.983.317,1.519l1.22,7.2a1.215,1.215,0,0,1-.068.627,1.621,1.621,0,0,1-.414.625l-1.544,1.521Zm-7.168-.489a3.347,3.347,0,0,0,2.364,1.159,3.269,3.269,0,0,0,2.336-1.076,3.816,3.816,0,0,0,.86-1.227,3.323,3.323,0,0,0,.266-1.28,3.118,3.118,0,0,0-.262-1.224,3.55,3.55,0,0,0-.713-1.053,3.952,3.952,0,0,0-1.177-.841,2.994,2.994,0,0,0-2.48-.021,4.019,4.019,0,0,0-1.946,1.932,3.055,3.055,0,0,0-.027,2.494A3.644,3.644,0,0,0,356.745,427.727Z" transform="translate(-353.591 -419.785)" fill="#2d2d2d"/></g><g transform="translate(389.101 406.429)"><path d="M291.579,352.968V355.7h-9.134v-2.734h3.082V344c0-.227,0-.458.01-.689s.019-.466.033-.7l-1.826,1.684a1.053,1.053,0,0,1-.48.251,1.222,1.222,0,0,1-.445,0,.983.983,0,0,1-.375-.159.889.889,0,0,1-.243-.239l-1.078-1.585,5-4.649h2.816v15.055Z" transform="translate(-281.125 -337.73)" fill="#004282"/><path d="M296.217,346.518a4.633,4.633,0,0,1,1.227.7,3.726,3.726,0,0,1,.835.952,4.111,4.111,0,0,1,.48,1.177,5.918,5.918,0,0,1,.153,1.361,5.505,5.505,0,0,1-.414,2.171,4.7,4.7,0,0,1-1.165,1.666,5.284,5.284,0,0,1-1.812,1.066,7.378,7.378,0,0,1-4.667,0,5.293,5.293,0,0,1-1.81-1.066,4.723,4.723,0,0,1-1.165-1.666,5.505,5.505,0,0,1-.414-2.171,5.812,5.812,0,0,1,.153-1.361,4.109,4.109,0,0,1,.48-1.177,3.662,3.662,0,0,1,.837-.952,4.591,4.591,0,0,1,1.226-.7A3.7,3.7,0,0,1,288.534,345a5.158,5.158,0,0,1-.153-4.257,4.52,4.52,0,0,1,1.078-1.532,5.111,5.111,0,0,1,1.645-1.018,6.021,6.021,0,0,1,4.172,0,5.133,5.133,0,0,1,1.645,1.018,4.582,4.582,0,0,1,1.08,1.532,5.169,5.169,0,0,1-.155,4.257A3.7,3.7,0,0,1,296.217,346.518Zm-3.028,6.613a2.3,2.3,0,0,0,.99-.2,1.853,1.853,0,0,0,.688-.53,2.143,2.143,0,0,0,.4-.792,3.7,3.7,0,0,0,.126-.983,4.749,4.749,0,0,0-.109-1.049,2.144,2.144,0,0,0-.363-.812,1.694,1.694,0,0,0-.678-.524,3.024,3.024,0,0,0-2.1,0,1.693,1.693,0,0,0-.678.524,2.144,2.144,0,0,0-.363.812,4.634,4.634,0,0,0-.111,1.049,3.621,3.621,0,0,0,.128.983,2.143,2.143,0,0,0,.4.792,1.848,1.848,0,0,0,.682.53A2.29,2.29,0,0,0,293.189,353.13Zm0-12.554a1.867,1.867,0,0,0-.87.183,1.688,1.688,0,0,0-.577.482,1.934,1.934,0,0,0-.326.689,3.26,3.26,0,0,0-.1.806,5.314,5.314,0,0,0,.076.9,2.247,2.247,0,0,0,.287.781,1.564,1.564,0,0,0,.571.548,2.213,2.213,0,0,0,1.872,0,1.548,1.548,0,0,0,.571-.548,2.247,2.247,0,0,0,.287-.781,5.308,5.308,0,0,0,.076-.9,3.26,3.26,0,0,0-.1-.806,1.868,1.868,0,0,0-.324-.689,1.69,1.69,0,0,0-.583-.482A1.875,1.875,0,0,0,293.189,340.577Z" transform="translate(-275.151 -337.819)" fill="#004282"/><path d="M294.057,347.1a2.217,2.217,0,0,1,.15-.818,2.108,2.108,0,0,1,.406-.658,1.969,1.969,0,0,1,.612-.445,1.784,1.784,0,0,1,.771-.165,1.764,1.764,0,0,1,.759.165,2.013,2.013,0,0,1,1.029,1.1,2.257,2.257,0,0,1,.148.818,2.323,2.323,0,0,1-.148.825,2.044,2.044,0,0,1-.414.664,1.973,1.973,0,0,1-.616.439,1.848,1.848,0,0,1-.759.159,1.869,1.869,0,0,1-.771-.159,1.892,1.892,0,0,1-.612-.439,2.091,2.091,0,0,1-.406-.664A2.282,2.282,0,0,1,294.057,347.1Z" transform="translate(-268.942 -331.042)" fill="#004282"/><path d="M302.907,349.056c.1-.138.2-.272.3-.4s.183-.26.262-.39a4.441,4.441,0,0,1-2.3.6,4.225,4.225,0,0,1-2.977-1.257,4.8,4.8,0,0,1-1.029-1.6,5.957,5.957,0,0,1-.4-2.282,6.414,6.414,0,0,1,.4-2.282,5.617,5.617,0,0,1,1.144-1.878,5.439,5.439,0,0,1,1.777-1.276,5.538,5.538,0,0,1,2.313-.47,5.825,5.825,0,0,1,2.321.439,4.881,4.881,0,0,1,1.734,1.233,5.476,5.476,0,0,1,1.088,1.884,7.27,7.27,0,0,1,.381,2.41,9.61,9.61,0,0,1-.47,3.123,11.928,11.928,0,0,1-1.268,2.6l-3.455,5.442a1.8,1.8,0,0,1-.7.6,2.254,2.254,0,0,1-1.062.245h-3.146Zm-2.729-5.613q0,2.66,2.224,2.661a2.034,2.034,0,0,0,1.676-.726,2.967,2.967,0,0,0,.588-1.934,3.46,3.46,0,0,0-.171-1.14,2.367,2.367,0,0,0-.47-.825,2.055,2.055,0,0,0-.732-.5,2.546,2.546,0,0,0-.936-.171,2.017,2.017,0,0,0-.919.2,1.975,1.975,0,0,0-.684.555,2.531,2.531,0,0,0-.427.835A3.524,3.524,0,0,0,300.178,343.443Z" transform="translate(-266.39 -337.819)" fill="#004282"/></g><g transform="translate(369.818 435.736)"><path d="M289.225,352.909v17.776h-3.28V360.462c0-.237,0-.493.016-.769s.031-.557.062-.843l-4.261,9.14a1.507,1.507,0,0,1-.534.647,1.368,1.368,0,0,1-.765.219h-.505a1.373,1.373,0,0,1-.765-.219,1.521,1.521,0,0,1-.534-.647l-4.259-9.165c.021.293.039.581.054.862s.021.538.021.775v10.223H271.2V352.909h2.839c.161,0,.3,0,.423.012a.982.982,0,0,1,.324.074.726.726,0,0,1,.258.188,1.491,1.491,0,0,1,.225.361l4.127,9.015c.148.309.289.631.425.963s.266.676.39,1.026c.124-.357.254-.709.39-1.049s.282-.668.435-.977l4.117-8.978a1.437,1.437,0,0,1,.225-.361.743.743,0,0,1,.258-.188.981.981,0,0,1,.324-.074q.181-.012.425-.012Z" transform="translate(-271.196 -352.909)" fill="#004282"/><path d="M300.1,352.909v17.776h-3.28V360.462q0-.355.017-.769c.012-.278.031-.557.06-.843l-4.259,9.14a1.521,1.521,0,0,1-.534.647,1.368,1.368,0,0,1-.765.219h-.507a1.367,1.367,0,0,1-.763-.219,1.521,1.521,0,0,1-.534-.647l-4.259-9.165c.021.293.039.581.054.862s.021.538.021.775v10.223h-3.278V352.909h2.839c.161,0,.3,0,.423.012a.982.982,0,0,1,.324.074.726.726,0,0,1,.258.188,1.493,1.493,0,0,1,.225.361l4.127,9.015c.148.309.289.631.425.963s.266.676.39,1.026c.124-.357.254-.709.39-1.049s.28-.668.435-.977l4.117-8.978a1.433,1.433,0,0,1,.225-.361.726.726,0,0,1,.258-.188.981.981,0,0,1,.324-.074c.12-.008.262-.012.423-.012Z" transform="translate(-260.945 -352.909)" fill="#004282"/><path d="M305.073,356.179h-4.512v14.506h-3.721V356.179h-4.512v-3.27h12.744Z" transform="translate(-251.287 -352.909)" fill="#004282"/><path d="M305.517,352.909a8.475,8.475,0,0,1,2.911.445,5.457,5.457,0,0,1,2,1.226,4.84,4.84,0,0,1,1.161,1.843,6.872,6.872,0,0,1,.375,2.294,7.422,7.422,0,0,1-.387,2.441,4.963,4.963,0,0,1-1.177,1.9A5.441,5.441,0,0,1,308.4,364.3a8.381,8.381,0,0,1-2.88.445h-1.936v5.943H299.86V352.909Zm0,8.724a2.585,2.585,0,0,0,2.094-.769,3.283,3.283,0,0,0,.637-2.148,3.555,3.555,0,0,0-.165-1.109,2.3,2.3,0,0,0-.5-.86,2.2,2.2,0,0,0-.849-.555,3.394,3.394,0,0,0-1.216-.2h-1.936v5.638Z" transform="translate(-244.192 -352.909)" fill="#004282"/><path d="M321.392,370.685H318.51a1.163,1.163,0,0,1-.781-.251,1.554,1.554,0,0,1-.453-.641l-.946-3.1h-6.1l-.946,3.1a1.456,1.456,0,0,1-.437.618,1.131,1.131,0,0,1-.775.274H305.17l6.207-17.776h3.808Zm-5.91-6.8L314,359.021q-.166-.463-.352-1.091c-.124-.419-.25-.872-.375-1.361q-.166.746-.352,1.379c-.124.423-.243.79-.352,1.1l-1.476,4.844Z" transform="translate(-239.189 -352.909)" fill="#004282"/></g><g transform="translate(350.478 464.356)"><path d="M273.984,371.167h-4.511v14.508h-3.721V371.167h-4.513V367.9h12.746Z" transform="translate(-261.238 -367.409)" fill="#004282"/><path d="M271.978,374.37a5.537,5.537,0,0,1,1.338-.946,3.8,3.8,0,0,1,1.721-.361,3.642,3.642,0,0,1,1.657.361,3.491,3.491,0,0,1,1.218,1,4.492,4.492,0,0,1,.748,1.525,6.966,6.966,0,0,1,.254,1.923v8.04H275.5v-8.04a2.394,2.394,0,0,0-.386-1.447,1.324,1.324,0,0,0-1.134-.519,2.175,2.175,0,0,0-1.051.264,4.181,4.181,0,0,0-.952.713v9.029h-3.412V367.646h3.412Z" transform="translate(-254.334 -367.646)" fill="#004282"/><path d="M278.218,372.606a5.238,5.238,0,0,1,1.216-1.61,2.372,2.372,0,0,1,1.581-.585,1.893,1.893,0,0,1,1.255.4l-.219,2.781a.615.615,0,0,1-.183.367.562.562,0,0,1-.346.1q-.09,0-.233-.012l-.3-.031-.313-.037a2.721,2.721,0,0,0-.291-.017,1.626,1.626,0,0,0-1.194.439,3.466,3.466,0,0,0-.754,1.22v7.687h-3.412V370.654h2.024a1.643,1.643,0,0,1,.425.049.708.708,0,0,1,.286.153.65.65,0,0,1,.177.274,3.143,3.143,0,0,1,.1.416Z" transform="translate(-248.247 -365.041)" fill="#004282"/><path d="M284.9,370.435a6.021,6.021,0,0,1,2.365.453,5.153,5.153,0,0,1,1.831,1.293,5.908,5.908,0,0,1,1.189,2.043,8.075,8.075,0,0,1,.425,2.7,8.215,8.215,0,0,1-.425,2.727,5.945,5.945,0,0,1-1.189,2.063,5.155,5.155,0,0,1-1.831,1.3,6.379,6.379,0,0,1-4.748,0,5.245,5.245,0,0,1-1.851-1.3,5.872,5.872,0,0,1-1.2-2.062,8.216,8.216,0,0,1-.425-2.727,8.076,8.076,0,0,1,.425-2.7,5.836,5.836,0,0,1,1.2-2.043,5.244,5.244,0,0,1,1.851-1.293A6.081,6.081,0,0,1,284.9,370.435Zm0,10.237a1.882,1.882,0,0,0,1.732-.921,7.323,7.323,0,0,0,0-5.6,1.884,1.884,0,0,0-1.732-.915,1.928,1.928,0,0,0-1.773.915,7.253,7.253,0,0,0,0,5.6A1.925,1.925,0,0,0,284.9,380.672Z" transform="translate(-244.463 -365.018)" fill="#004282"/><path d="M296.227,370.536v12.653h-2.115a.811.811,0,0,1-.837-.635l-.2-.732a6.753,6.753,0,0,1-.682.641,4.129,4.129,0,0,1-.754.487,4.207,4.207,0,0,1-.87.318,4.3,4.3,0,0,1-1.018.115,3.68,3.68,0,0,1-1.657-.359,3.459,3.459,0,0,1-1.216-1.006,4.536,4.536,0,0,1-.748-1.526,6.849,6.849,0,0,1-.254-1.927v-8.029h3.412v8.029a2.375,2.375,0,0,0,.385,1.451,1.332,1.332,0,0,0,1.134.513,2.19,2.19,0,0,0,1.051-.262,4.308,4.308,0,0,0,.954-.713v-9.017Z" transform="translate(-238.024 -364.923)" fill="#004282"/><path d="M303.11,371.033v1.379a.727.727,0,0,1-.159.5,1.043,1.043,0,0,1-.544.282l-.827.208a5,5,0,0,1,.1.55,4.34,4.34,0,0,1,.039.585,3.946,3.946,0,0,1-.357,1.709,3.813,3.813,0,0,1-.979,1.286,4.385,4.385,0,0,1-1.47.818,5.6,5.6,0,0,1-1.816.287c-.177,0-.348-.006-.517-.019a3.815,3.815,0,0,1-.5-.066.711.711,0,0,0-.373.573.474.474,0,0,0,.309.458,2.647,2.647,0,0,0,.814.194q.507.055,1.15.074t1.317.085a9.52,9.52,0,0,1,1.315.225,3.413,3.413,0,0,1,1.15.513,2.6,2.6,0,0,1,.814.946,3.245,3.245,0,0,1,.309,1.507,3.953,3.953,0,0,1-.375,1.67,4.263,4.263,0,0,1-1.1,1.453,5.594,5.594,0,0,1-1.783,1.02,7.1,7.1,0,0,1-2.422.383,8.439,8.439,0,0,1-2.315-.28,5.294,5.294,0,0,1-1.618-.738,2.961,2.961,0,0,1-.954-1.057,2.668,2.668,0,0,1-.307-1.243,2.209,2.209,0,0,1,.439-1.4,3.11,3.11,0,0,1,1.233-.9,2.02,2.02,0,0,1-.66-.719,2.347,2.347,0,0,1-.241-1.136,2.178,2.178,0,0,1,.085-.59,2.3,2.3,0,0,1,.282-.61,2.94,2.94,0,0,1,.48-.567,3.058,3.058,0,0,1,.682-.478,3.939,3.939,0,0,1-1.408-1.383,3.818,3.818,0,0,1-.519-2.008,3.915,3.915,0,0,1,.363-1.713,3.8,3.8,0,0,1,1-1.293,4.47,4.47,0,0,1,1.492-.818,5.863,5.863,0,0,1,1.861-.287,5.312,5.312,0,0,1,2.575.61Zm-3.368,12.725a.688.688,0,0,0-.363-.653,2.794,2.794,0,0,0-.946-.286,11.04,11.04,0,0,0-1.305-.1q-.722-.018-1.435-.091a2.345,2.345,0,0,0-.524.544,1.164,1.164,0,0,0-.2.676,1.122,1.122,0,0,0,.1.489.9.9,0,0,0,.369.377,2.247,2.247,0,0,0,.711.251,5.664,5.664,0,0,0,1.128.091,6.24,6.24,0,0,0,1.21-.1,2.4,2.4,0,0,0,.753-.268.975.975,0,0,0,.39-.408A1.226,1.226,0,0,0,299.743,383.757ZM297.1,376.3a1.491,1.491,0,0,0,1.227-.47,1.87,1.87,0,0,0,.379-1.214,1.79,1.79,0,0,0-.379-1.208,1.936,1.936,0,0,0-2.455,0,1.79,1.79,0,0,0-.379,1.208,2.36,2.36,0,0,0,.091.672,1.455,1.455,0,0,0,.293.53,1.347,1.347,0,0,0,.5.354A1.839,1.839,0,0,0,297.1,376.3Z" transform="translate(-232.241 -365.03)" fill="#004282"/><path d="M301.877,374.37a5.566,5.566,0,0,1,1.336-.946,3.817,3.817,0,0,1,1.725-.361,3.646,3.646,0,0,1,1.655.361,3.5,3.5,0,0,1,1.216,1,4.5,4.5,0,0,1,.75,1.525,6.967,6.967,0,0,1,.252,1.923v8.04H305.4v-8.04a2.381,2.381,0,0,0-.385-1.447,1.32,1.32,0,0,0-1.132-.519,2.177,2.177,0,0,0-1.053.264,4.182,4.182,0,0,0-.952.713v9.029h-3.41V367.646h3.41Z" transform="translate(-226.165 -367.646)" fill="#004282"/><path d="M308.129,372.215a6.04,6.04,0,0,1,1.525-1.3,3.908,3.908,0,0,1,2.031-.5,3.238,3.238,0,0,1,1.651.439,3.95,3.95,0,0,1,1.311,1.268,6.758,6.758,0,0,1,.862,2.031,10.881,10.881,0,0,1,.315,2.727,9.236,9.236,0,0,1-.357,2.635,6.946,6.946,0,0,1-1,2.1A4.721,4.721,0,0,1,312.922,383a4,4,0,0,1-1.985.5,3.559,3.559,0,0,1-1.5-.28,3.979,3.979,0,0,1-1.1-.757v4.857h-3.412V370.654h2.115a.811.811,0,0,1,.835.635Zm.21,7.65a2.291,2.291,0,0,0,.835.66,2.4,2.4,0,0,0,.948.194,1.754,1.754,0,0,0,1.558-.872,3.766,3.766,0,0,0,.456-1.19,8.171,8.171,0,0,0,.167-1.781,9.112,9.112,0,0,0-.134-1.684,3.694,3.694,0,0,0-.369-1.1,1.4,1.4,0,0,0-1.3-.789,2.272,2.272,0,0,0-1.233.307,3.535,3.535,0,0,0-.924.89Z" transform="translate(-220.08 -365.041)" fill="#004282"/><path d="M321.733,370.536v12.653H319.62a.813.813,0,0,1-.837-.635l-.2-.732a6.991,6.991,0,0,1-.684.641,4.131,4.131,0,0,1-.754.487,4.249,4.249,0,0,1-.87.318,4.32,4.32,0,0,1-1.018.115,3.674,3.674,0,0,1-1.657-.359,3.482,3.482,0,0,1-1.218-1.006,4.533,4.533,0,0,1-.746-1.526,6.924,6.924,0,0,1-.254-1.927v-8.029H314.8v8.029a2.375,2.375,0,0,0,.385,1.451,1.332,1.332,0,0,0,1.134.513,2.2,2.2,0,0,0,1.051-.262,4.254,4.254,0,0,0,.952-.713v-9.017Z" transform="translate(-213.993 -364.923)" fill="#004282"/><path d="M322.409,385.165a3.667,3.667,0,0,1-1.435-.262,2.85,2.85,0,0,1-1.047-.744,3.308,3.308,0,0,1-.645-1.165,5,5,0,0,1-.219-1.525v-6.541h-.969a.6.6,0,0,1-.449-.188.752.752,0,0,1-.188-.555v-1.476l1.816-.39.67-3.086a.69.69,0,0,1,.75-.587h1.783v3.7h2.83v2.585h-2.83v6.285a1.27,1.27,0,0,0,.194.726.626.626,0,0,0,.555.285.964.964,0,0,0,.313-.043,1.159,1.159,0,0,0,.219-.1c.062-.037.122-.07.177-.1a.409.409,0,0,1,.194-.043.366.366,0,0,1,.247.08.967.967,0,0,1,.192.249l1.033,1.794a4.575,4.575,0,0,1-1.484.823A5.38,5.38,0,0,1,322.409,385.165Z" transform="translate(-208.274 -366.705)" fill="#004282"/></g></g></svg>